<?xml version="1.0" encoding="utf-8"?>
<!-- Generator: Adobe Illustrator 27.5.0, SVG Export Plug-In . SVG Version: 6.00 Build 0)  -->
<svg version="1.1" xmlns="http://www.w3.org/2000/svg" xmlns:xlink="http://www.w3.org/1999/xlink" x="0px" y="0px"
	 viewBox="0 0 650 500" style="enable-background:new 0 0 650 500;" xml:space="preserve">
<g id="BACKGROUND">
	
		<linearGradient id="SVGID_1_" gradientUnits="userSpaceOnUse" x1="-8.2158" y1="-16348.1768" x2="650.2103" y2="-15921.0166" gradientTransform="matrix(1 0 0 -1 0 -15882)">
		<stop  offset="0" style="stop-color:#FFFFFF"/>
		<stop  offset="1" style="stop-color:#E6E7E8"/>
	</linearGradient>
	<rect y="0" style="fill:url(#SVGID_1_);" width="650" height="500"/>
</g>
<g id="OBJECTS">
	<g>
		<g>
			
				<linearGradient id="SVGID_00000143584191310484075400000005891912423041029054_" gradientUnits="userSpaceOnUse" x1="325" y1="79.4998" x2="325" y2="435.5789">
				<stop  offset="0" style="stop-color:#DCDCDC"/>
				<stop  offset="0.4384" style="stop-color:#C0C0C0"/>
				<stop  offset="1" style="stop-color:#A0A0A0"/>
			</linearGradient>
			<path style="fill:url(#SVGID_00000143584191310484075400000005891912423041029054_);" d="M401.5,381.223
				c-5.938,0-11.611,0.753-16.823,2.122c-8.164,2.145-16.862,0.532-23.906-4.119l-63.15-41.689
				c-5.792-3.823-7.733-11.257-4.909-17.596c1.248-2.8,1.918-5.768,1.918-8.84c0-3.072-0.67-6.039-1.918-8.84
				c-2.824-6.339-0.883-13.773,4.909-17.597l59.252-39.116c9.233-6.095,20.5-8.055,31.345-5.872
				c4.206,0.847,8.664,1.302,13.283,1.302c25.477,0,46.13-13.827,46.13-30.883c0-17.056-20.653-30.883-46.13-30.883
				c-5.938,0-11.612,0.753-16.823,2.122c-8.164,2.145-16.862,0.532-23.906-4.119l-63.149-41.689
				c-5.792-3.824-7.733-11.258-4.909-17.597c1.248-2.8,1.918-5.768,1.918-8.84c0-17.056-20.653-30.883-46.13-30.883
				c-25.477,0-46.13,13.827-46.13,30.883c0,17.056,20.653,30.883,46.13,30.883c5.728,0,11.209-0.7,16.268-1.979
				c8.539-2.159,17.592-0.56,24.943,4.293l62.83,41.478c5.699,3.762,7.656,11.1,4.826,17.315c-1.299,2.852-1.997,5.879-1.997,9.015
				c0,2.304,0.377,4.549,1.092,6.709c2.765,8.354-0.736,17.518-8.079,22.366l-57.754,38.127c-7.936,5.239-17.672,6.804-26.931,4.639
				c-4.758-1.113-9.872-1.719-15.197-1.719c-25.477,0-46.13,13.827-46.13,30.883c0,17.056,20.653,30.883,46.13,30.883
				c5.728,0,11.209-0.7,16.268-1.979c8.54-2.159,17.592-0.56,24.943,4.293l62.83,41.478c5.699,3.762,7.656,11.1,4.826,17.315
				c-1.299,2.852-1.997,5.879-1.997,9.015c0,17.056,20.653,30.883,46.13,30.883c25.477,0,46.13-13.827,46.13-30.883
				C447.63,395.049,426.977,381.223,401.5,381.223z"/>
			<g>
				
					<linearGradient id="SVGID_00000051348997231277161570000003798015516619592362_" gradientUnits="userSpaceOnUse" x1="309.5034" y1="159.5666" x2="342.8333" y2="159.5666">
					<stop  offset="0" style="stop-color:#FFFFFF"/>
					<stop  offset="1" style="stop-color:#E6E7E8"/>
				</linearGradient>
				<path style="fill:url(#SVGID_00000051348997231277161570000003798015516619592362_);" d="M342.807,170.301l-2.051-4.382
					c-0.133-0.284-0.686-0.413-0.996-0.232l-1.691,0.984l-26.826-18.027c-0.417-0.28-1.071-0.324-1.46-0.098
					c-0.389,0.226-0.367,0.637,0.05,0.918l26.827,18.027l-1.691,0.984c-0.31,0.18-0.144,0.535,0.299,0.638l6.843,1.595
					C342.552,170.81,342.94,170.585,342.807,170.301z"/>
				
					<linearGradient id="SVGID_00000174569350519617211360000008520354631650088362_" gradientUnits="userSpaceOnUse" x1="308.3351" y1="361.2126" x2="341.6649" y2="361.2126">
					<stop  offset="0" style="stop-color:#FFFFFF"/>
					<stop  offset="1" style="stop-color:#E6E7E8"/>
				</linearGradient>
				<path style="fill:url(#SVGID_00000174569350519617211360000008520354631650088362_);" d="M341.638,371.947l-2.051-4.382
					c-0.133-0.284-0.686-0.413-0.997-0.232l-1.691,0.984l-26.827-18.027c-0.417-0.28-1.071-0.324-1.46-0.098
					c-0.389,0.227-0.367,0.637,0.05,0.918l26.827,18.027l-1.691,0.984c-0.31,0.18-0.144,0.535,0.299,0.638l6.843,1.595
					C341.384,372.456,341.771,372.23,341.638,371.947z"/>
				
					<linearGradient id="SVGID_00000138534273989326055490000009723418471906331809_" gradientUnits="userSpaceOnUse" x1="325.5146" y1="257.2499" x2="358.8445" y2="257.2499" gradientTransform="matrix(-1 0 0 1 671.5258 0)">
					<stop  offset="0" style="stop-color:#FFFFFF"/>
					<stop  offset="1" style="stop-color:#E6E7E8"/>
				</linearGradient>
				<path style="fill:url(#SVGID_00000138534273989326055490000009723418471906331809_);" d="M312.708,267.984l2.051-4.382
					c0.133-0.284,0.686-0.413,0.996-0.232l1.691,0.984l26.827-18.027c0.417-0.28,1.071-0.324,1.46-0.098
					c0.389,0.227,0.367,0.637-0.05,0.918l-26.827,18.027l1.691,0.984c0.31,0.18,0.144,0.535-0.299,0.638l-6.843,1.595
					C312.963,268.493,312.575,268.268,312.708,267.984z"/>
			</g>
		</g>
		<g>
			
				<linearGradient id="SVGID_00000101796431889310016350000008266196864657385902_" gradientUnits="userSpaceOnUse" x1="451.4449" y1="244.4883" x2="376.6514" y2="190.1477">
				<stop  offset="0" style="stop-color:#BDC5C5;stop-opacity:0"/>
				<stop  offset="0.3812" style="stop-color:#A7B0B2;stop-opacity:0.3812"/>
				<stop  offset="1" style="stop-color:#879196"/>
			</linearGradient>
			<path style="opacity:0.7;fill:url(#SVGID_00000101796431889310016350000008266196864657385902_);" d="M476.355,219.706
				L476.355,219.706l-44.08-29.041l-0.007,0.005c-7.695-5.424-18.628-8.818-30.766-8.818c-23.292,0-42.174,12.478-42.174,27.871
				c0,7.795,4.848,14.839,12.653,19.898l-0.005,0.003l44.775,29.52c0.039,0.026,0.078,0.051,0.117,0.077l0.263,0.173l0.006-0.004
				c7.605,4.918,18.009,7.954,29.49,7.954c23.292,0,42.174-12.478,42.174-27.871C488.801,231.745,484.041,224.754,476.355,219.706z"
				/>
			<ellipse style="fill:none;stroke:#75848E;stroke-miterlimit:10;" cx="402.363" cy="210.216" rx="49.036" ry="32.406"/>
			
				<linearGradient id="SVGID_00000149349217846408425920000001087799474730349971_" gradientUnits="userSpaceOnUse" x1="359.2905" y1="-16095.8672" x2="443.6379" y2="-16095.8672" gradientTransform="matrix(1 0 0 -1 0 -15882)">
				<stop  offset="0" style="stop-color:#EBEEF7"/>
				<stop  offset="0.6869" style="stop-color:#99B6CD"/>
				<stop  offset="1" style="stop-color:#79A0BD"/>
			</linearGradient>
			<path style="fill:url(#SVGID_00000149349217846408425920000001087799474730349971_);" d="M359.29,190.188v19.487
				c0,15.393,18.882,27.872,42.174,27.872c23.292,0,42.174-12.479,42.174-27.872v-19.487H359.29z"/>
			<ellipse style="fill:#FFFFFF;" cx="401.464" cy="190.188" rx="42.174" ry="27.871"/>
			
				<linearGradient id="SVGID_00000114072082908949041460000004970443893872419771_" gradientUnits="userSpaceOnUse" x1="401.4642" y1="150.5" x2="401.4642" y2="219.0073">
				<stop  offset="0" style="stop-color:#FF9A6D"/>
				<stop  offset="0.1652" style="stop-color:#FD936D"/>
				<stop  offset="1" style="stop-color:#F2736E"/>
			</linearGradient>
			
				<ellipse style="fill:url(#SVGID_00000114072082908949041460000004970443893872419771_);" cx="401.464" cy="190.188" rx="38.637" ry="25.534"/>
			<ellipse style="fill:#FFFFFF;" cx="401.464" cy="190.188" rx="24.937" ry="16.48"/>
		</g>
		<g>
			
				<linearGradient id="SVGID_00000169548672592462117240000013303256562843992203_" gradientUnits="userSpaceOnUse" x1="298.5222" y1="345.5504" x2="223.7287" y2="291.2097">
				<stop  offset="0" style="stop-color:#BDC5C5;stop-opacity:0"/>
				<stop  offset="0.3812" style="stop-color:#A7B0B2;stop-opacity:0.3812"/>
				<stop  offset="1" style="stop-color:#879196"/>
			</linearGradient>
			<path style="opacity:0.7;fill:url(#SVGID_00000169548672592462117240000013303256562843992203_);" d="M323.432,320.768
				L323.432,320.768l-44.08-29.041l-0.007,0.005c-7.695-5.424-18.628-8.818-30.766-8.818c-23.292,0-42.174,12.478-42.174,27.871
				c0,7.795,4.848,14.839,12.653,19.898l-0.005,0.003l44.775,29.52c0.039,0.026,0.078,0.051,0.117,0.077l0.263,0.173l0.006-0.004
				c7.605,4.918,18.009,7.954,29.49,7.954c23.292,0,42.174-12.478,42.174-27.871C335.878,332.807,331.118,325.816,323.432,320.768z"
				/>
			<ellipse style="fill:none;stroke:#75848E;stroke-miterlimit:10;" cx="248.385" cy="311.979" rx="49.036" ry="32.406"/>
			
				<linearGradient id="SVGID_00000114786488667714209110000016469972623941448104_" gradientUnits="userSpaceOnUse" x1="206.2904" y1="-16196.8721" x2="290.6379" y2="-16196.8721" gradientTransform="matrix(1 0 0 -1 0 -15882)">
				<stop  offset="0" style="stop-color:#EBEEF7"/>
				<stop  offset="0.6869" style="stop-color:#99B6CD"/>
				<stop  offset="1" style="stop-color:#79A0BD"/>
			</linearGradient>
			<path style="fill:url(#SVGID_00000114786488667714209110000016469972623941448104_);" d="M206.29,291.193v19.487
				c0,15.393,18.882,27.872,42.174,27.872c23.292,0,42.174-12.479,42.174-27.872v-19.487H206.29z"/>
			<ellipse style="fill:#FFFFFF;" cx="248.464" cy="291.193" rx="42.174" ry="27.871"/>
			
				<linearGradient id="SVGID_00000097462658246446515130000006828608626851257781_" gradientUnits="userSpaceOnUse" x1="248.4642" y1="249.6667" x2="248.4642" y2="325.81">
				<stop  offset="0" style="stop-color:#9FF2A6"/>
				<stop  offset="0.6072" style="stop-color:#66DE97"/>
				<stop  offset="1" style="stop-color:#46D38F"/>
			</linearGradient>
			
				<ellipse style="fill:url(#SVGID_00000097462658246446515130000006828608626851257781_);" cx="248.464" cy="291.193" rx="38.637" ry="25.534"/>
			<ellipse style="fill:#FFFFFF;" cx="248.464" cy="291.193" rx="24.937" ry="16.48"/>
		</g>
		<g>
			
				<linearGradient id="SVGID_00000064350603773384125710000001043955634788856212_" gradientUnits="userSpaceOnUse" x1="451.4922" y1="446.5109" x2="376.6988" y2="392.1703">
				<stop  offset="0" style="stop-color:#BDC5C5;stop-opacity:0"/>
				<stop  offset="0.3812" style="stop-color:#A7B0B2;stop-opacity:0.3812"/>
				<stop  offset="1" style="stop-color:#879196"/>
			</linearGradient>
			<path style="opacity:0.7;fill:url(#SVGID_00000064350603773384125710000001043955634788856212_);" d="M476.402,421.728
				L476.402,421.728l-44.08-29.041l-0.007,0.004c-7.695-5.424-18.628-8.818-30.766-8.818c-23.292,0-42.174,12.478-42.174,27.871
				c0,7.795,4.848,14.839,12.653,19.898l-0.005,0.003l44.775,29.52c0.039,0.026,0.078,0.051,0.117,0.077l0.263,0.173l0.006-0.004
				c7.605,4.918,18.009,7.954,29.49,7.954c23.292,0,42.174-12.478,42.174-27.871C488.848,433.768,484.088,426.777,476.402,421.728z"
				/>
			<ellipse style="fill:none;stroke:#75848E;stroke-miterlimit:10;" cx="401.464" cy="413.313" rx="49.036" ry="32.406"/>
			
				<linearGradient id="SVGID_00000001652376025467537490000006186481909203322755_" gradientUnits="userSpaceOnUse" x1="359.2905" y1="-16297.877" x2="443.6379" y2="-16297.877" gradientTransform="matrix(1 0 0 -1 0 -15882)">
				<stop  offset="0" style="stop-color:#EBEEF7"/>
				<stop  offset="0.6869" style="stop-color:#99B6CD"/>
				<stop  offset="1" style="stop-color:#79A0BD"/>
			</linearGradient>
			<path style="fill:url(#SVGID_00000001652376025467537490000006186481909203322755_);" d="M359.29,392.198v19.487
				c0,15.393,18.882,27.872,42.174,27.872c23.292,0,42.174-12.479,42.174-27.872v-19.487H359.29z"/>
			<ellipse style="fill:#FFFFFF;" cx="401.464" cy="392.198" rx="42.174" ry="27.871"/>
			
				<linearGradient id="SVGID_00000077289749953474798210000008657204883289706662_" gradientUnits="userSpaceOnUse" x1="401.4642" y1="359.5" x2="401.4642" y2="425.3871">
				<stop  offset="0" style="stop-color:#B3EEFF"/>
				<stop  offset="0.5461" style="stop-color:#87D8FF"/>
				<stop  offset="1" style="stop-color:#67C8FF"/>
			</linearGradient>
			
				<ellipse style="fill:url(#SVGID_00000077289749953474798210000008657204883289706662_);" cx="401.464" cy="392.198" rx="38.637" ry="25.534"/>
			<ellipse style="fill:#FFFFFF;" cx="401.464" cy="392.198" rx="24.937" ry="16.48"/>
		</g>
		<g>
			
				<linearGradient id="SVGID_00000081625926455376183070000015717278844110529716_" gradientUnits="userSpaceOnUse" x1="298.407" y1="143.4357" x2="223.6135" y2="89.0951">
				<stop  offset="0" style="stop-color:#BDC5C5;stop-opacity:0"/>
				<stop  offset="0.3812" style="stop-color:#A7B0B2;stop-opacity:0.3812"/>
				<stop  offset="1" style="stop-color:#879196"/>
			</linearGradient>
			<path style="opacity:0.7;fill:url(#SVGID_00000081625926455376183070000015717278844110529716_);" d="M323.317,118.653
				L323.317,118.653l-44.08-29.041l-0.007,0.005c-7.695-5.424-18.628-8.818-30.766-8.818c-23.292,0-42.174,12.478-42.174,27.871
				c0,7.795,4.848,14.839,12.653,19.898l-0.005,0.003l44.775,29.52c0.039,0.026,0.078,0.051,0.117,0.077l0.263,0.173l0.006-0.004
				c7.605,4.918,18.009,7.954,29.49,7.954c23.292,0,42.174-12.478,42.174-27.871C335.763,130.693,331.003,123.701,323.317,118.653z"
				/>
			<ellipse style="fill:none;stroke:#75848E;stroke-miterlimit:10;" cx="248.385" cy="109.281" rx="49.036" ry="32.406"/>
			
				<linearGradient id="SVGID_00000101074532834627740170000012020628435502869912_" gradientUnits="userSpaceOnUse" x1="206.2904" y1="-15994.8623" x2="290.6379" y2="-15994.8623" gradientTransform="matrix(1 0 0 -1 0 -15882)">
				<stop  offset="0" style="stop-color:#EBEEF7"/>
				<stop  offset="0.6869" style="stop-color:#99B6CD"/>
				<stop  offset="1" style="stop-color:#79A0BD"/>
			</linearGradient>
			<path style="fill:url(#SVGID_00000101074532834627740170000012020628435502869912_);" d="M206.29,89.183v19.487
				c0,15.393,18.882,27.872,42.174,27.872c23.292,0,42.174-12.479,42.174-27.872V89.183H206.29z"/>
			<ellipse style="fill:#FFFFFF;" cx="248.464" cy="89.183" rx="42.174" ry="27.871"/>
			
				<linearGradient id="SVGID_00000036241773380822484200000015227076821594370487_" gradientUnits="userSpaceOnUse" x1="248.4642" y1="56" x2="248.4642" y2="122.7341">
				<stop  offset="0" style="stop-color:#FFD8A7"/>
				<stop  offset="0.3233" style="stop-color:#FFD196"/>
				<stop  offset="1" style="stop-color:#FFC376"/>
			</linearGradient>
			
				<ellipse style="fill:url(#SVGID_00000036241773380822484200000015227076821594370487_);" cx="248.464" cy="89.183" rx="38.637" ry="25.534"/>
			<ellipse style="fill:#FFFFFF;" cx="248.464" cy="89.183" rx="24.937" ry="16.48"/>
		</g>
		<g>
			
				<radialGradient id="SVGID_00000116946890888137912930000007871853922556273845_" cx="247.8434" cy="99.7338" r="19.0514" gradientTransform="matrix(1 0 0 0.6179 0 27.5036)" gradientUnits="userSpaceOnUse">
				<stop  offset="0" style="stop-color:#6D6E71"/>
				<stop  offset="0.1273" style="stop-color:#757678;stop-opacity:0.8727"/>
				<stop  offset="0.3208" style="stop-color:#8A8A8D;stop-opacity:0.6792"/>
				<stop  offset="0.5565" style="stop-color:#ACADAE;stop-opacity:0.4435"/>
				<stop  offset="0.8229" style="stop-color:#DBDCDC;stop-opacity:0.1771"/>
				<stop  offset="1" style="stop-color:#FFFFFF;stop-opacity:0"/>
			</radialGradient>
			
				<ellipse style="opacity:0.6;fill:url(#SVGID_00000116946890888137912930000007871853922556273845_);" cx="247.843" cy="89.125" rx="19.702" ry="12.25"/>
			<g>
				
					<linearGradient id="SVGID_00000065035347989248186650000000290976642782785214_" gradientUnits="userSpaceOnUse" x1="242.5884" y1="92.4157" x2="242.5884" y2="64.2507">
					<stop  offset="0" style="stop-color:#FED291"/>
					<stop  offset="1" style="stop-color:#FFC376"/>
				</linearGradient>
				<polygon style="fill:url(#SVGID_00000065035347989248186650000000290976642782785214_);" points="239.767,89.026 245.41,92.737 
					245.41,64.141 239.767,60.43 				"/>
				<g>
					
						<linearGradient id="SVGID_00000035530393641729666970000005734513395441800367_" gradientUnits="userSpaceOnUse" x1="247.0441" y1="91.4487" x2="247.0441" y2="50.0766">
						<stop  offset="0" style="stop-color:#F58220"/>
						<stop  offset="0.5568" style="stop-color:#FBB00D"/>
						<stop  offset="1" style="stop-color:#FFD000"/>
					</linearGradient>
					<path style="fill:url(#SVGID_00000035530393641729666970000005734513395441800367_);" d="M245.41,92.737V64.141
						c-0.506,0.897-1.202,1.788-2.088,2.671c-0.886,0.884-1.722,1.553-2.509,2.007v-5.926c0.745-0.542,1.546-1.248,2.404-2.115
						c0.857-0.868,1.656-1.842,2.394-2.922c0.738-1.08,1.304-2.198,1.698-3.353l5.968-3.445v37.137L245.41,92.737z"/>
				</g>
				
					<linearGradient id="SVGID_00000160176344438292145990000001696145297672195459_" gradientUnits="userSpaceOnUse" x1="237.9913" y1="53.6069" x2="237.9913" y2="76.5753">
					<stop  offset="0" style="stop-color:#FED291"/>
					<stop  offset="1" style="stop-color:#FFC376"/>
				</linearGradient>
				<polygon style="fill:url(#SVGID_00000160176344438292145990000001696145297672195459_);" points="235.17,59.182 240.813,62.894 
					240.813,68.819 235.17,65.108 				"/>
				
					<linearGradient id="SVGID_00000070831629549728414670000008879342750078318739_" gradientUnits="userSpaceOnUse" x1="247.4703" y1="51.6221" x2="247.4703" y2="71.0713">
					<stop  offset="0" style="stop-color:#FFD8A7"/>
					<stop  offset="0.3233" style="stop-color:#FFD196"/>
					<stop  offset="1" style="stop-color:#FFC376"/>
				</linearGradient>
				<polygon style="fill:url(#SVGID_00000070831629549728414670000008879342750078318739_);" points="241.665,50.793 
					247.308,54.504 253.276,51.059 247.633,47.347 				"/>
				
					<linearGradient id="SVGID_00000056419067752430845120000016006432966581314438_" gradientUnits="userSpaceOnUse" x1="241.2371" y1="46.3549" x2="241.2371" y2="68.0565">
					<stop  offset="0" style="stop-color:#FFD8A7"/>
					<stop  offset="0.3233" style="stop-color:#FFD196"/>
					<stop  offset="1" style="stop-color:#FFC376"/>
				</linearGradient>
				<path style="fill:url(#SVGID_00000056419067752430845120000016006432966581314438_);" d="M247.307,54.501
					c-0.392,1.16-0.957,2.277-1.697,3.358c-0.74,1.081-1.537,2.052-2.393,2.923c-0.856,0.863-1.661,1.567-2.408,2.11l-1.044-0.689
					l-0.82-0.537l-3.778-2.487c0.747-0.537,1.552-1.247,2.408-2.11c0.856-0.87,1.654-1.842,2.393-2.923
					c0.74-1.081,1.305-2.197,1.697-3.35L247.307,54.501z"/>
			</g>
		</g>
		<g>
			
				<radialGradient id="SVGID_00000065045122825625262020000007086026616262388118_" cx="402.3626" cy="174.6398" r="19.0514" gradientTransform="matrix(1 0 0 0.6179 0 82.2855)" gradientUnits="userSpaceOnUse">
				<stop  offset="0" style="stop-color:#6D6E71"/>
				<stop  offset="0.1273" style="stop-color:#757678;stop-opacity:0.8727"/>
				<stop  offset="0.3208" style="stop-color:#8A8A8D;stop-opacity:0.6792"/>
				<stop  offset="0.5565" style="stop-color:#ACADAE;stop-opacity:0.4435"/>
				<stop  offset="0.8229" style="stop-color:#DBDCDC;stop-opacity:0.1771"/>
				<stop  offset="1" style="stop-color:#FFFFFF;stop-opacity:0"/>
			</radialGradient>
			
				<ellipse style="opacity:0.6;fill:url(#SVGID_00000065045122825625262020000007086026616262388118_);" cx="402.363" cy="190.188" rx="19.702" ry="12.25"/>
			<g>
				
					<linearGradient id="SVGID_00000127017383910190184930000002065213734392032179_" gradientUnits="userSpaceOnUse" x1="413.6814" y1="180.9028" x2="401.7755" y2="180.9028">
					<stop  offset="0" style="stop-color:#FF9A6D"/>
					<stop  offset="0.5168" style="stop-color:#F67369"/>
					<stop  offset="1" style="stop-color:#EF5365"/>
				</linearGradient>
				<polygon style="fill:url(#SVGID_00000127017383910190184930000002065213734392032179_);" points="413.816,179.836 
					408.194,176.125 398.071,181.969 403.693,185.681 				"/>
				
					<linearGradient id="SVGID_00000057844627869617347700000000243416994701459842_" gradientUnits="userSpaceOnUse" x1="388.9393" y1="179.8388" x2="406.2213" y2="179.8388">
					<stop  offset="0" style="stop-color:#FF9A6D"/>
					<stop  offset="0.1652" style="stop-color:#FD936D"/>
					<stop  offset="1" style="stop-color:#F2736E"/>
				</linearGradient>
				<path style="fill:url(#SVGID_00000057844627869617347700000000243416994701459842_);" d="M406.221,164.1
					c0,1.813-0.276,3.612-0.827,5.388c-0.558,1.77-1.276,3.539-2.154,5.287c-0.878,1.755-1.806,3.495-2.77,5.243
					c-1.001,1.784-1.951,3.561-2.85,5.345c-0.899,1.777-1.632,3.561-2.205,5.359c-0.566,1.799-0.856,3.619-0.856,5.461v1.77
					l-5.62-3.713v-1.77c0-1.842,0.283-3.662,0.856-5.461c0.566-1.799,1.305-3.583,2.205-5.359c0.899-1.777,1.849-3.561,2.843-5.345
					c0.268-0.479,0.529-0.95,0.783-1.429l6.737-3.887v-4.533c0-2.205,0.624-3.67,1.857-4.38c0.819-0.471,1.356-0.471,1.617,0.007
					C406.091,162.555,406.221,163.23,406.221,164.1z"/>
				
					<linearGradient id="SVGID_00000082355558412381953340000011150743326811004846_" gradientUnits="userSpaceOnUse" x1="388.8595" y1="162.4773" x2="412.0521" y2="162.4773">
					<stop  offset="0" style="stop-color:#FF9A6D"/>
					<stop  offset="0.1652" style="stop-color:#FD936D"/>
					<stop  offset="1" style="stop-color:#F2736E"/>
				</linearGradient>
				<path style="fill:url(#SVGID_00000082355558412381953340000011150743326811004846_);" d="M412.052,153.802
					c-0.174-0.116-0.355-0.21-0.544-0.297c-1.711-0.747-4.105-0.225-7.18,1.552c-2.589,1.494-4.598,3.14-6.027,4.939
					c-1.421,1.798-2.422,3.793-2.981,5.983c-0.566,2.19-0.841,4.62-0.841,7.289c0,0.377,0.007,0.769,0.029,1.16
					c0.022,0.399,0.036,0.754,0.051,1.066l-5.62-3.713c-0.014-0.312-0.029-0.667-0.051-1.066c-0.022-0.392-0.029-0.783-0.029-1.16
					c0-2.669,0.276-5.098,0.841-7.288c0.558-2.183,1.552-4.177,2.981-5.983c1.429-1.799,3.438-3.445,6.019-4.939
					c3.082-1.777,5.475-2.299,7.187-1.552c0.181,0.08,0.348,0.181,0.515,0.29h0.022L412.052,153.802z"/>
				<g>
					
						<linearGradient id="SVGID_00000175300093094840117380000002075127250702873516_" gradientUnits="userSpaceOnUse" x1="404.2736" y1="145.2589" x2="404.2736" y2="193.975">
						<stop  offset="0" style="stop-color:#F15D42"/>
						<stop  offset="0.1844" style="stop-color:#EC553D"/>
						<stop  offset="1" style="stop-color:#D83527"/>
					</linearGradient>
					<path style="fill:url(#SVGID_00000175300093094840117380000002075127250702873516_);" d="M394.562,197.954v-1.771
						c0-1.842,0.285-3.662,0.854-5.46c0.569-1.798,1.304-3.586,2.203-5.363c0.9-1.778,1.849-3.559,2.847-5.345
						c0.97-1.742,1.895-3.488,2.773-5.239c0.879-1.751,1.596-3.515,2.152-5.291c0.554-1.775,0.833-3.57,0.833-5.384
						c0-0.871-0.131-1.545-0.39-2.021c-0.261-0.475-0.799-0.477-1.614-0.007c-1.237,0.714-1.855,2.175-1.855,4.382v4.534
						l-7.803,4.505c-0.014-0.316-0.032-0.671-0.052-1.067c-0.022-0.395-0.032-0.783-0.032-1.162c0-2.671,0.28-5.1,0.844-7.288
						c0.562-2.187,1.557-4.181,2.984-5.983c1.427-1.8,3.434-3.448,6.021-4.941c3.079-1.778,5.473-2.296,7.181-1.553
						c1.708,0.743,2.562,2.718,2.562,5.923c0,2.179-0.281,4.25-0.844,6.212c-0.562,1.963-1.307,3.883-2.235,5.762
						c-0.928,1.879-1.948,3.806-3.057,5.782c-0.788,1.397-1.55,2.8-2.289,4.211c-0.737,1.41-1.388,2.84-1.951,4.289l10.123-5.844
						v7.002L394.562,197.954z"/>
				</g>
			</g>
		</g>
		<g>
			
				<radialGradient id="SVGID_00000124854266006431262750000005615663358296544701_" cx="248.5714" cy="249.5025" r="19.0514" gradientTransform="matrix(1 0 0 0.6179 0 137.0358)" gradientUnits="userSpaceOnUse">
				<stop  offset="0" style="stop-color:#6D6E71"/>
				<stop  offset="0.1273" style="stop-color:#757678;stop-opacity:0.8727"/>
				<stop  offset="0.3208" style="stop-color:#8A8A8D;stop-opacity:0.6792"/>
				<stop  offset="0.5565" style="stop-color:#ACADAE;stop-opacity:0.4435"/>
				<stop  offset="0.8229" style="stop-color:#DBDCDC;stop-opacity:0.1771"/>
				<stop  offset="1" style="stop-color:#FFFFFF;stop-opacity:0"/>
			</radialGradient>
			
				<ellipse style="opacity:0.6;fill:url(#SVGID_00000124854266006431262750000005615663358296544701_);" cx="248.571" cy="291.193" rx="19.702" ry="12.25"/>
			<g>
				
					<linearGradient id="SVGID_00000049208976311609174530000018351909210504125842_" gradientUnits="userSpaceOnUse" x1="236.7777" y1="273.0694" x2="259.8034" y2="273.0694">
					<stop  offset="0" style="stop-color:#9FF2A6"/>
					<stop  offset="0.6072" style="stop-color:#66DE97"/>
					<stop  offset="1" style="stop-color:#46D38F"/>
				</linearGradient>
				<path style="fill:url(#SVGID_00000049208976311609174530000018351909210504125842_);" d="M242.405,289.111v-3.88l2.705-1.559
					c-0.152-0.058-0.268-0.181-0.348-0.363c-0.247-0.537-0.37-1.298-0.37-2.284v-3.902l-7.615,4.395v3.88
					c0,3.35,0.696,5.475,2.074,6.411l-0.007,0.022l5.664,3.735v-0.007C243.102,294.645,242.405,292.498,242.405,289.111z
					 M250.898,277.312c-0.152,0.087-0.29,0.174-0.406,0.246c-0.123,0.08-0.225,0.145-0.312,0.21v-6.665
					c1.284-0.74,2.263-1.588,2.937-2.546c0.674-0.957,1.008-2.11,1.008-3.445c0-2.096-0.602-2.792-1.813-2.096
					c-0.783,0.457-1.32,1.066-1.588,1.842c-0.276,0.769-0.413,1.624-0.413,2.567v1.117l-5.751,3.322v2.19
					c0.087-0.065,0.189-0.131,0.305-0.21c0.123-0.073,0.261-0.16,0.413-0.247c1.255-0.725,2.089-0.732,2.516-0.022
					c0.435,0.711,0.645,1.704,0.645,2.981v0.928c0,1.675-0.116,2.944-0.355,3.822c-0.087,0.312-0.21,0.602-0.377,0.863l2.306-1.334
					v3.902c0,0.986,0.123,1.748,0.37,2.284c0.247,0.544,0.798,0.566,1.654,0.073c0.878-0.508,1.429-1.197,1.668-2.074
					c0.239-0.87,0.363-2.147,0.363-3.822v-0.928c0-1.276-0.217-2.27-0.645-2.981S252.152,276.586,250.898,277.312z M254.132,251.081
					l-0.022,0.007c-1.574-1.008-4.054-0.537-7.463,1.429c-3.278,1.893-5.707,4.09-7.296,6.6c-1.588,2.502-2.386,5.461-2.386,8.862
					c0,0.225,0.007,0.457,0.014,0.689c0.007,0.232,0.015,0.435,0.029,0.595l5.62,3.713c-0.007-0.16-0.022-0.355-0.029-0.595
					c-0.007-0.232-0.007-0.464-0.007-0.689c0-3.401,0.79-6.353,2.379-8.862c1.588-2.509,4.025-4.707,7.296-6.592
					c3.452-1.994,5.961-2.466,7.528-1.407c0.007-0.007,0.007-0.007,0.007-0.007L254.132,251.081z"/>
				
					<linearGradient id="SVGID_00000049919798952003154880000014991199223135270302_" gradientUnits="userSpaceOnUse" x1="247.3714" y1="269.5229" x2="247.3714" y2="280.9508">
					<stop  offset="0" style="stop-color:#9FF2A6"/>
					<stop  offset="0.6072" style="stop-color:#66DE97"/>
					<stop  offset="1" style="stop-color:#46D38F"/>
				</linearGradient>
				<polygon style="fill:url(#SVGID_00000049919798952003154880000014991199223135270302_);" points="244.56,274.054 
					250.183,277.768 250.183,271.104 244.56,267.39 				"/>
				
					<linearGradient id="SVGID_00000114031462337696171400000002314093842466318478_" gradientUnits="userSpaceOnUse" x1="252.1236" y1="255.1998" x2="252.1236" y2="299.2601">
					<stop  offset="0" style="stop-color:#1DB78A"/>
					<stop  offset="0.1652" style="stop-color:#21B183"/>
					<stop  offset="1" style="stop-color:#319763"/>
				</linearGradient>
				<path style="fill:url(#SVGID_00000114031462337696171400000002314093842466318478_);" d="M251.786,294.115
					c-3.276,1.892-5.659,2.402-7.148,1.533c-1.491-0.87-2.236-3.047-2.236-6.533v-3.88l7.613-4.395v3.902
					c0,0.984,0.123,1.746,0.369,2.285c0.246,0.54,0.798,0.562,1.656,0.067c0.871-0.503,1.426-1.193,1.666-2.068
					c0.239-0.877,0.359-2.151,0.359-3.824v-0.928c0-1.279-0.215-2.273-0.643-2.982c-0.428-0.708-1.269-0.701-2.52,0.021
					c-0.154,0.089-0.292,0.172-0.411,0.248c-0.12,0.076-0.222,0.146-0.306,0.208v-6.664c1.28-0.738,2.257-1.587,2.932-2.547
					c0.675-0.959,1.012-2.106,1.012-3.442c0-2.094-0.605-2.792-1.814-2.095c-0.787,0.455-1.318,1.066-1.592,1.836
					c-0.274,0.77-0.411,1.625-0.411,2.567v1.118l-7.676,4.432c-0.014-0.161-0.025-0.358-0.032-0.593
					c-0.007-0.235-0.011-0.465-0.011-0.69c0-3.402,0.794-6.356,2.383-8.863c1.589-2.506,4.02-4.704,7.296-6.595
					c6.327-3.653,9.49-2.189,9.49,4.39c0,1.828-0.246,3.478-0.738,4.95c-0.492,1.472-1.406,2.833-2.741,4.082
					c1.055-0.103,1.835,0.094,2.341,0.589c0.506,0.495,0.836,1.282,0.991,2.358c0.154,1.078,0.232,2.446,0.232,4.105
					c0,3.712-0.777,7.022-2.33,9.928C257.961,289.543,255.385,292.037,251.786,294.115z"/>
				
					<linearGradient id="SVGID_00000130622782296928616610000007329552458385920422_" gradientUnits="userSpaceOnUse" x1="243.3965" y1="285.5382" x2="243.3965" y2="274.5572">
					<stop  offset="0" style="stop-color:#9FF2A6"/>
					<stop  offset="0.6072" style="stop-color:#66DE97"/>
					<stop  offset="1" style="stop-color:#46D38F"/>
				</linearGradient>
				<polygon style="fill:url(#SVGID_00000130622782296928616610000007329552458385920422_);" points="236.779,281.52 
					242.402,285.234 250.014,280.839 244.391,277.125 				"/>
			</g>
		</g>
		<g>
			
				<radialGradient id="SVGID_00000108277654455831849270000003700844161096114588_" cx="401.4642" cy="324.3655" r="19.0514" gradientTransform="matrix(1 0 0 0.6179 0 191.7862)" gradientUnits="userSpaceOnUse">
				<stop  offset="0" style="stop-color:#6D6E71"/>
				<stop  offset="0.1273" style="stop-color:#757678;stop-opacity:0.8727"/>
				<stop  offset="0.3208" style="stop-color:#8A8A8D;stop-opacity:0.6792"/>
				<stop  offset="0.5565" style="stop-color:#ACADAE;stop-opacity:0.4435"/>
				<stop  offset="0.8229" style="stop-color:#DBDCDC;stop-opacity:0.1771"/>
				<stop  offset="1" style="stop-color:#FFFFFF;stop-opacity:0"/>
			</radialGradient>
			
				<ellipse style="opacity:0.6;fill:url(#SVGID_00000108277654455831849270000003700844161096114588_);" cx="401.464" cy="392.198" rx="19.702" ry="12.25"/>
			<g>
				
					<linearGradient id="SVGID_00000146478854621916995770000018400649482058115211_" gradientUnits="userSpaceOnUse" x1="398.6526" y1="364.7505" x2="398.6526" y2="386.6443">
					<stop  offset="0" style="stop-color:#B3EEFF"/>
					<stop  offset="0.5461" style="stop-color:#87D8FF"/>
					<stop  offset="1" style="stop-color:#67C8FF"/>
				</linearGradient>
				<path style="fill:url(#SVGID_00000146478854621916995770000018400649482058115211_);" d="M399.38,390.484V384.6l-11.008,6.356
					v-5.799l7.022-29.529l11.557-6.672v25.075l1.982-1.144v6.2l-1.982,1.145v5.884L399.38,390.484z M394.993,380.933l4.387-2.533
					v-18.706L394.993,380.933z"/>
				
					<linearGradient id="SVGID_00000154387810127544455260000015210214849381766332_" gradientUnits="userSpaceOnUse" x1="399.9981" y1="378.0462" x2="399.9981" y2="385.8555">
					<stop  offset="0" style="stop-color:#B3EEFF"/>
					<stop  offset="0.5461" style="stop-color:#87D8FF"/>
					<stop  offset="1" style="stop-color:#67C8FF"/>
				</linearGradient>
				<polyline style="fill:url(#SVGID_00000154387810127544455260000015210214849381766332_);" points="405.003,382.114 
					399.38,378.4 394.993,380.933 400.616,384.647 				"/>
				
					<linearGradient id="SVGID_00000036245922369600146510000018357592462001208477_" gradientUnits="userSpaceOnUse" x1="391.1837" y1="385.2983" x2="391.1837" y2="399.26">
					<stop  offset="0" style="stop-color:#B3EEFF"/>
					<stop  offset="0.5461" style="stop-color:#87D8FF"/>
					<stop  offset="1" style="stop-color:#67C8FF"/>
				</linearGradient>
				<polygon style="fill:url(#SVGID_00000036245922369600146510000018357592462001208477_);" points="388.372,390.956 
					393.995,394.67 393.995,388.871 388.372,385.157 				"/>
				
					<linearGradient id="SVGID_00000053546451213782854450000009571481790951835583_" gradientUnits="userSpaceOnUse" x1="394.6946" y1="350.324" x2="394.6946" y2="402.6114">
					<stop  offset="0" style="stop-color:#B3EEFF"/>
					<stop  offset="0.5461" style="stop-color:#87D8FF"/>
					<stop  offset="1" style="stop-color:#67C8FF"/>
				</linearGradient>
				<polygon style="fill:url(#SVGID_00000053546451213782854450000009571481790951835583_);" points="395.394,355.627 
					401.017,359.341 393.995,388.871 388.372,385.157 				"/>
				
					<linearGradient id="SVGID_00000136380327495855758850000016740931715356638095_" gradientUnits="userSpaceOnUse" x1="402.1916" y1="381.5944" x2="402.1916" y2="395.905">
					<stop  offset="0" style="stop-color:#B3EEFF"/>
					<stop  offset="0.5461" style="stop-color:#87D8FF"/>
					<stop  offset="1" style="stop-color:#67C8FF"/>
				</linearGradient>
				<polygon style="fill:url(#SVGID_00000136380327495855758850000016740931715356638095_);" points="399.38,390.484 
					405.003,394.198 405.003,388.314 399.38,384.6 				"/>
				
					<linearGradient id="SVGID_00000015322147072048561880000003657676028314260906_" gradientUnits="userSpaceOnUse" x1="410.7536" y1="371.3639" x2="410.7536" y2="378.6079">
					<stop  offset="0" style="stop-color:#B3EEFF"/>
					<stop  offset="0.5461" style="stop-color:#87D8FF"/>
					<stop  offset="1" style="stop-color:#67C8FF"/>
				</linearGradient>
				<polygon style="fill:url(#SVGID_00000015322147072048561880000003657676028314260906_);" points="414.556,376.599 
					408.933,372.885 406.951,374.03 412.574,377.744 				"/>
				<g>
					
						<linearGradient id="SVGID_00000155838878386607976440000017838240807503963793_" gradientUnits="userSpaceOnUse" x1="404.2758" y1="352.7844" x2="404.2758" y2="397.2658">
						<stop  offset="0" style="stop-color:#59B4EC"/>
						<stop  offset="0.5168" style="stop-color:#358FC5"/>
						<stop  offset="1" style="stop-color:#1771A5"/>
					</linearGradient>
					<path style="fill:url(#SVGID_00000155838878386607976440000017838240807503963793_);" d="M405.003,394.198v-5.884
						l-11.008,6.356v-5.799l7.022-29.529l11.557-6.672v25.075l1.982-1.145v6.2l-1.982,1.144v5.884L405.003,394.198z
						 M400.616,384.647l4.387-2.533v-18.706L400.616,384.647z"/>
				</g>
				
					<linearGradient id="SVGID_00000008835870980894614630000016644296068324882365_" gradientUnits="userSpaceOnUse" x1="403.984" y1="346.3724" x2="403.984" y2="367.8641">
					<stop  offset="0" style="stop-color:#B3EEFF"/>
					<stop  offset="0.5461" style="stop-color:#87D8FF"/>
					<stop  offset="1" style="stop-color:#67C8FF"/>
				</linearGradient>
				<polygon style="fill:url(#SVGID_00000008835870980894614630000016644296068324882365_);" points="406.951,348.955 
					412.574,352.669 401.017,359.341 395.394,355.627 				"/>
			</g>
		</g>
		<g>
			<g>
				
					<linearGradient id="SVGID_00000156569114385842883440000006854147143894245311_" gradientUnits="userSpaceOnUse" x1="74.9367" y1="195.2008" x2="70.7976" y2="192.9381">
					<stop  offset="0" style="stop-color:#F58220"/>
					<stop  offset="0.5568" style="stop-color:#FBB00D"/>
					<stop  offset="1" style="stop-color:#FFD000"/>
				</linearGradient>
				
					<polygon style="fill-rule:evenodd;clip-rule:evenodd;fill:url(#SVGID_00000156569114385842883440000006854147143894245311_);" points="
					72.867,194.069 72.867,194.069 72.866,194.07 				"/>
				
					<linearGradient id="SVGID_00000049934244307777764590000018393436201368957857_" gradientUnits="userSpaceOnUse" x1="104.1241" y1="211.1015" x2="66.6244" y2="190.6017">
					<stop  offset="0" style="stop-color:#F58220"/>
					<stop  offset="0.5568" style="stop-color:#FBB00D"/>
					<stop  offset="1" style="stop-color:#FFD000"/>
				</linearGradient>
				<path style="fill-rule:evenodd;clip-rule:evenodd;fill:url(#SVGID_00000049934244307777764590000018393436201368957857_);" d="
					M72.867,194.069c0.261-0.151,0.32-0.359,0.133-0.467l-2.42-1.407c-0.187-0.109-0.548-0.076-0.808,0.074l-0.001,0.001
					c-0.259,0.149-0.316,0.359-0.129,0.467l2.42,1.407C72.248,194.253,72.607,194.219,72.867,194.069z"/>
				
					<linearGradient id="SVGID_00000098192638307397884160000003713716610004188599_" gradientUnits="userSpaceOnUse" x1="97.3829" y1="223.4335" x2="59.8832" y2="202.9336">
					<stop  offset="0" style="stop-color:#F58220"/>
					<stop  offset="0.5568" style="stop-color:#FBB00D"/>
					<stop  offset="1" style="stop-color:#FFD000"/>
				</linearGradient>
				<path style="fill-rule:evenodd;clip-rule:evenodd;fill:url(#SVGID_00000098192638307397884160000003713716610004188599_);" d="
					M71.824,207.932l-2.534,1.756c-0.197,0.136-0.153,0.339,0.097,0.452l0,0c0.25,0.115,0.613,0.097,0.808-0.039l2.537-1.758
					c0.194-0.135,0.152-0.338-0.098-0.451l0,0C72.382,207.779,72.02,207.796,71.824,207.932z"/>
				
					<linearGradient id="SVGID_00000119094573713875789430000003414517297984052126_" gradientUnits="userSpaceOnUse" x1="98.8814" y1="220.692" x2="61.3819" y2="200.1922">
					<stop  offset="0" style="stop-color:#F58220"/>
					<stop  offset="0.5568" style="stop-color:#FBB00D"/>
					<stop  offset="1" style="stop-color:#FFD000"/>
				</linearGradient>
				<path style="fill-rule:evenodd;clip-rule:evenodd;fill:url(#SVGID_00000119094573713875789430000003414517297984052126_);" d="
					M66.618,201.592c0.006-0.197-0.22-0.34-0.506-0.319l-3.703,0.261c-0.286,0.021-0.525,0.197-0.53,0.393
					c-0.008,0.197,0.22,0.342,0.504,0.322l3.702-0.262C66.371,201.967,66.611,201.788,66.618,201.592z"/>
				
					<linearGradient id="SVGID_00000134246301090533371140000014979781669458710161_" gradientUnits="userSpaceOnUse" x1="110.4671" y1="199.4992" x2="72.9671" y2="178.9992">
					<stop  offset="0" style="stop-color:#F58220"/>
					<stop  offset="0.5568" style="stop-color:#FBB00D"/>
					<stop  offset="1" style="stop-color:#FFD000"/>
				</linearGradient>
				<path style="fill-rule:evenodd;clip-rule:evenodd;fill:url(#SVGID_00000134246301090533371140000014979781669458710161_);" d="
					M99.833,192.054l-3.04,1.462c-0.235,0.113-0.267,0.323-0.071,0.469l0,0c0.194,0.145,0.545,0.17,0.778,0.058l3.043-1.464
					c0.235-0.112,0.267-0.323,0.07-0.468l0,0C100.418,191.967,100.069,191.941,99.833,192.054z"/>
				
					<linearGradient id="SVGID_00000160882201731209090220000010647887638439670424_" gradientUnits="userSpaceOnUse" x1="109.252" y1="201.7211" x2="71.7525" y2="181.2213">
					<stop  offset="0" style="stop-color:#F58220"/>
					<stop  offset="0.5568" style="stop-color:#FBB00D"/>
					<stop  offset="1" style="stop-color:#FFD000"/>
				</linearGradient>
				<path style="fill-rule:evenodd;clip-rule:evenodd;fill:url(#SVGID_00000160882201731209090220000010647887638439670424_);" d="
					M86.466,187.731c-0.339,0.002-0.643,0.14-0.68,0.305l-0.464,2.145c-0.037,0.166,0.209,0.297,0.549,0.294
					c0.339-0.003,0.648-0.142,0.682-0.307l0.466-2.145C87.055,187.86,86.807,187.727,86.466,187.731z"/>
				
					<linearGradient id="SVGID_00000081610845536182508870000006228533388370122891_" gradientUnits="userSpaceOnUse" x1="103.9726" y1="211.3794" x2="66.4725" y2="190.8793">
					<stop  offset="0" style="stop-color:#F58220"/>
					<stop  offset="0.5568" style="stop-color:#FBB00D"/>
					<stop  offset="1" style="stop-color:#FFD000"/>
				</linearGradient>
				<path style="fill-rule:evenodd;clip-rule:evenodd;fill:url(#SVGID_00000081610845536182508870000006228533388370122891_);" d="
					M75.418,194.15c-6.634,3.142-7.71,8.467-2.604,11.437c3.224,1.875,8.092,2.324,12.607,1.431
					c0.733-0.145,1.487-0.051,1.976,0.233l3.266,1.9c0.778,0.453,2.06,0.471,2.983,0.069c0.28,0.087,0.572,0.166,0.869,0.218
					c1.279,0.229,2.496,0.088,3.085-0.251l1.346-0.777c0.588-0.34,0.835-1.045,0.445-1.787c-0.087-0.172-0.223-0.342-0.372-0.504
					c0.698-0.534,0.658-1.269-0.12-1.721l-3.264-1.899c-0.487-0.283-0.652-0.718-0.399-1.141c1.769-2.951,0.576-6.154-3.757-7.979
					C87.034,191.505,80.309,191.834,75.418,194.15z M90.552,204.314c-4.968,2.868-12.481,3.179-16.778,0.68
					c-4.297-2.5-3.732-6.852,1.236-9.721c4.981-2.876,12.494-3.187,16.791-0.687C96.098,197.085,95.533,201.438,90.552,204.314z"/>
				
					<linearGradient id="SVGID_00000104693886780929829430000015144168520007285898_" gradientUnits="userSpaceOnUse" x1="101.4723" y1="215.9532" x2="63.9723" y2="195.4532">
					<stop  offset="0" style="stop-color:#F58220"/>
					<stop  offset="0.5568" style="stop-color:#FBB00D"/>
					<stop  offset="1" style="stop-color:#FFD000"/>
				</linearGradient>
				<path style="fill-rule:evenodd;clip-rule:evenodd;fill:url(#SVGID_00000104693886780929829430000015144168520007285898_);" d="
					M74.321,199.069c-0.337-0.014-0.683,0.133-0.757,0.332c-0.624,1.667,0.043,3.374,2.074,4.555
					c1.895,1.102,4.591,1.519,7.288,1.27c0.367-0.029,0.647-0.23,0.612-0.432l0.002-0.014c-0.038-0.174-0.29-0.29-0.609-0.263
					c-2.352,0.207-4.705-0.146-6.352-1.104c-1.771-1.03-2.345-2.516-1.81-3.962c0.085-0.193-0.124-0.36-0.437-0.375L74.321,199.069z
					"/>
			</g>
			<g id="XMLID_8_">
				<g id="XMLID_10_">
					
						<text transform="matrix(1.0019 -0.5784 0.8644 0.5028 99.4532 170.7201)" style="fill:#F6B875; font-family:'Antonio-Bold'; font-size:12px;">INITIATION</text>
					<g>
						
							<linearGradient id="SVGID_00000165917710265245236320000001983125091930308488_" gradientUnits="userSpaceOnUse" x1="133.4388" y1="245.4368" x2="86.9422" y2="214.1891" gradientTransform="matrix(1 -0.5774 0.8628 0.5019 -211.8083 106.5958)">
							<stop  offset="0" style="stop-color:#F58220"/>
							<stop  offset="0.5568" style="stop-color:#FBB00D"/>
							<stop  offset="1" style="stop-color:#FFD000"/>
						</linearGradient>
						<path style="fill:url(#SVGID_00000165917710265245236320000001983125091930308488_);" d="M100.263,170.252l-8.914-5.185
							l1.573-0.909l8.914,5.186L100.263,170.252z"/>
						
							<linearGradient id="SVGID_00000138554976060560859820000018062064791514660014_" gradientUnits="userSpaceOnUse" x1="133.4388" y1="245.4368" x2="86.9422" y2="214.1891" gradientTransform="matrix(1 -0.5774 0.8628 0.5019 -211.8083 106.5958)">
							<stop  offset="0" style="stop-color:#F58220"/>
							<stop  offset="0.5568" style="stop-color:#FBB00D"/>
							<stop  offset="1" style="stop-color:#FFD000"/>
						</linearGradient>
						<path style="fill:url(#SVGID_00000138554976060560859820000018062064791514660014_);" d="M103.416,168.432l-8.914-5.185
							l1.232-0.712l7.538,1.847l-2.542-1.35l-2.918-1.697l1.415-0.817l8.914,5.185l-1.116,0.644l-7.784-1.922l2.428,1.311
							l3.195,1.859L103.416,168.432z"/>
						
							<linearGradient id="SVGID_00000048465920322327373740000000803008380149277064_" gradientUnits="userSpaceOnUse" x1="133.4388" y1="245.4368" x2="86.9422" y2="214.1891" gradientTransform="matrix(1 -0.5774 0.8628 0.5019 -211.8083 106.5958)">
							<stop  offset="0" style="stop-color:#F58220"/>
							<stop  offset="0.5568" style="stop-color:#FBB00D"/>
							<stop  offset="1" style="stop-color:#FFD000"/>
						</linearGradient>
						<path style="fill:url(#SVGID_00000048465920322327373740000000803008380149277064_);" d="M109.726,164.789l-8.914-5.185
							l1.573-0.909l8.914,5.185L109.726,164.789z"/>
						
							<linearGradient id="SVGID_00000143581181108189783730000015676268069038435730_" gradientUnits="userSpaceOnUse" x1="133.4388" y1="245.4368" x2="86.9422" y2="214.1891" gradientTransform="matrix(1 -0.5774 0.8628 0.5019 -211.8083 106.5958)">
							<stop  offset="0" style="stop-color:#F58220"/>
							<stop  offset="0.5568" style="stop-color:#FBB00D"/>
							<stop  offset="1" style="stop-color:#FFD000"/>
						</linearGradient>
						<path style="fill:url(#SVGID_00000143581181108189783730000015676268069038435730_);" d="M113.418,162.657l-7.738-4.501
							l-1.209,0.698l-1.176-0.684l3.939-2.274l1.176,0.684l-1.162,0.671l7.738,4.501L113.418,162.657z"/>
						
							<linearGradient id="SVGID_00000065781767445696225710000007468226867922980516_" gradientUnits="userSpaceOnUse" x1="133.4388" y1="245.4368" x2="86.9422" y2="214.1891" gradientTransform="matrix(1 -0.5774 0.8628 0.5019 -211.8083 106.5958)">
							<stop  offset="0" style="stop-color:#F58220"/>
							<stop  offset="0.5568" style="stop-color:#FBB00D"/>
							<stop  offset="1" style="stop-color:#FFD000"/>
						</linearGradient>
						<path style="fill:url(#SVGID_00000065781767445696225710000007468226867922980516_);" d="M117.064,160.552l-8.914-5.185
							l1.573-0.908l8.914,5.185L117.064,160.552z"/>
						
							<linearGradient id="SVGID_00000153697667916922290590000007648661395117854904_" gradientUnits="userSpaceOnUse" x1="133.4388" y1="245.4368" x2="86.9422" y2="214.1891" gradientTransform="matrix(1 -0.5774 0.8628 0.5019 -211.8083 106.5958)">
							<stop  offset="0" style="stop-color:#F58220"/>
							<stop  offset="0.5568" style="stop-color:#FBB00D"/>
							<stop  offset="1" style="stop-color:#FFD000"/>
						</linearGradient>
						<path style="fill:url(#SVGID_00000153697667916922290590000007648661395117854904_);" d="M119.606,159.085l-7.441-6.036
							l2.078-1.2l10.481,4.28l-1.467,0.847l-1.837-0.782l-1.667,0.962l1.367,1.054L119.606,159.085z M118.817,156.435l1.35-0.779
							l-5.17-2.205l-0.023,0.014L118.817,156.435z"/>
						
							<linearGradient id="SVGID_00000120537123619931275640000016772608912302746023_" gradientUnits="userSpaceOnUse" x1="133.4388" y1="245.4368" x2="86.9422" y2="214.1891" gradientTransform="matrix(1 -0.5774 0.8628 0.5019 -211.8083 106.5958)">
							<stop  offset="0" style="stop-color:#F58220"/>
							<stop  offset="0.5568" style="stop-color:#FBB00D"/>
							<stop  offset="1" style="stop-color:#FFD000"/>
						</linearGradient>
						<path style="fill:url(#SVGID_00000120537123619931275640000016772608912302746023_);" d="M126.198,155.279l-7.738-4.501
							l-1.209,0.698l-1.176-0.684l3.939-2.274l1.176,0.684l-1.163,0.671l7.738,4.501L126.198,155.279z"/>
						
							<linearGradient id="SVGID_00000034810934477278275230000005083925522639423667_" gradientUnits="userSpaceOnUse" x1="133.4388" y1="245.4368" x2="86.9422" y2="214.1891" gradientTransform="matrix(1 -0.5774 0.8628 0.5019 -211.8083 106.5958)">
							<stop  offset="0" style="stop-color:#F58220"/>
							<stop  offset="0.5568" style="stop-color:#FBB00D"/>
							<stop  offset="1" style="stop-color:#FFD000"/>
						</linearGradient>
						<path style="fill:url(#SVGID_00000034810934477278275230000005083925522639423667_);" d="M129.844,153.174l-8.914-5.185
							l1.573-0.908l8.914,5.185L129.844,153.174z"/>
						
							<linearGradient id="SVGID_00000159471899096865368590000014389175433254813868_" gradientUnits="userSpaceOnUse" x1="133.4388" y1="245.4368" x2="86.9422" y2="214.1891" gradientTransform="matrix(1 -0.5774 0.8628 0.5019 -211.8083 106.5958)">
							<stop  offset="0" style="stop-color:#F58220"/>
							<stop  offset="0.5568" style="stop-color:#FBB00D"/>
							<stop  offset="1" style="stop-color:#FFD000"/>
						</linearGradient>
						<path style="fill:url(#SVGID_00000159471899096865368590000014389175433254813868_);" d="M135.27,150.159
							c-0.536,0.31-1.071,0.505-1.606,0.587c-0.534,0.082-1.074,0.057-1.619-0.075c-0.546-0.131-1.103-0.362-1.669-0.692
							l-4.077-2.371c-0.514-0.299-0.874-0.6-1.082-0.902c-0.208-0.303-0.24-0.609-0.096-0.92c0.146-0.31,0.493-0.625,1.045-0.943
							c0.415-0.24,0.82-0.409,1.219-0.51c0.396-0.1,0.789-0.139,1.176-0.119c0.387,0.021,0.772,0.097,1.154,0.227
							c0.383,0.129,0.766,0.306,1.151,0.53l4.077,2.372c0.566,0.33,0.966,0.652,1.196,0.964c0.229,0.313,0.277,0.623,0.14,0.929
							C136.143,149.542,135.806,149.849,135.27,150.159z M134.095,149.475c0.195-0.113,0.291-0.227,0.288-0.342
							c-0.003-0.115-0.092-0.243-0.266-0.383c-0.175-0.14-0.421-0.302-0.738-0.486l-4.153-2.416
							c-0.388-0.226-0.729-0.376-1.024-0.45c-0.295-0.074-0.582-0.031-0.859,0.129c-0.286,0.165-0.378,0.336-0.275,0.514
							s0.353,0.382,0.751,0.614l4.158,2.419c0.324,0.188,0.606,0.334,0.848,0.435c0.241,0.102,0.462,0.151,0.664,0.148
							C133.689,149.653,133.891,149.593,134.095,149.475z"/>
						
							<linearGradient id="SVGID_00000029026613531362125310000000700318281608288948_" gradientUnits="userSpaceOnUse" x1="133.4388" y1="245.4368" x2="86.9422" y2="214.1891" gradientTransform="matrix(1 -0.5774 0.8628 0.5019 -211.8083 106.5958)">
							<stop  offset="0" style="stop-color:#F58220"/>
							<stop  offset="0.5568" style="stop-color:#FBB00D"/>
							<stop  offset="1" style="stop-color:#FFD000"/>
						</linearGradient>
						<path style="fill:url(#SVGID_00000029026613531362125310000000700318281608288948_);" d="M138.861,147.968l-8.914-5.185
							l1.233-0.712l7.539,1.848l-2.543-1.351l-2.918-1.696l1.415-0.817l8.914,5.186l-1.115,0.644l-7.784-1.922l2.428,1.311
							l3.195,1.859L138.861,147.968z"/>
					</g>
				</g>
			</g>
			<g id="XMLID_2_">
				<g>
					<g id="XMLID_00000008147077675433498680000013145078438789701764_">
						
							<text transform="matrix(0.9893 -0.5712 0.8644 0.5028 150.008 141.6886)" style="fill:#75848E; font-family:'Antonio-Bold'; font-size:18px;">2024</text>
						
							<text transform="matrix(0.9893 -0.5712 0.8644 0.5028 150.008 141.6886)" style="fill:#A6AEB2; font-family:'Antonio-Bold'; font-size:18px;">2024</text>
					</g>
				</g>
			</g>
			
				<linearGradient id="SVGID_00000164504662670394720860000001874141890935140793_" gradientUnits="userSpaceOnUse" x1="100.0099" y1="161.7241" x2="212.1729" y2="161.7241">
				<stop  offset="0" style="stop-color:#879196"/>
				<stop  offset="0.6188" style="stop-color:#A7B0B2"/>
				<stop  offset="1" style="stop-color:#BDC5C5"/>
			</linearGradient>
			<path style="opacity:0.2;fill:url(#SVGID_00000164504662670394720860000001874141890935140793_);" d="M190.645,127.265
				c-1.471,0-2.905,0.102-4.294,0.288c-0.098,0.013-0.196,0.028-0.294,0.042c-3.866,0.554-7.342,1.792-10.126,3.517
				c-0.001,0.001-68.657,40.192-68.657,40.192c-0.1,0.059-0.297,0.18-0.297,0.18c-4.283,2.599-6.967,6.331-6.967,10.475
				c0,7.859,9.642,14.225,21.528,14.225c1.471,0,2.905-0.102,4.294-0.288c0.098-0.013,0.196-0.028,0.294-0.042
				c3.866-0.554,7.342-1.792,10.126-3.517c0.001-0.001,68.657-40.192,68.657-40.192c0.1-0.059,0.297-0.18,0.297-0.18
				c4.283-2.599,6.967-6.331,6.967-10.475C212.173,133.631,202.531,127.265,190.645,127.265z"/>
			<g>
				<polygon style="fill:none;" points="197.136,148.169 128.925,187.835 112.619,178.35 180.83,138.684 				"/>
				<text transform="matrix(1.0019 -0.5784 0.8644 0.5028 114.9391 179.6997)"><tspan x="0" y="0" style="fill:#F58220; font-family:'Montserrat-SemiBold'; font-size:4px;">Lorem ipsum dolor sit amet:</tspan><tspan x="0" y="4.8" style="fill:#526575; font-family:'Montserrat-Regular'; font-size:4px;">consectetur adipiscing elit, sed do </tspan><tspan x="0" y="9.601" style="fill:#526575; font-family:'Montserrat-Regular'; font-size:4px;">eiusmod tempor.</tspan></text>
			</g>
		</g>
		<g>
			<g>
				
					<linearGradient id="SVGID_00000127015477879431623230000004366371668849859483_" gradientUnits="userSpaceOnUse" x1="582.4986" y1="-16172.207" x2="533.1602" y2="-16221.5449" gradientTransform="matrix(1 -0.5774 -0.8628 -0.5019 -13969.6172 -7494.0029)">
					<stop  offset="0" style="stop-color:#59B4EC"/>
					<stop  offset="0.5168" style="stop-color:#358FC5"/>
					<stop  offset="1" style="stop-color:#1771A5"/>
				</linearGradient>
				<path style="fill:url(#SVGID_00000127015477879431623230000004366371668849859483_);" d="M552.372,305.116
					c-6.857,3.959-7.622,9.979-1.706,13.42c5.916,3.441,16.306,3.02,23.163-0.939c6.857-3.959,7.623-9.979,1.708-13.42
					C569.621,300.736,559.229,301.157,552.372,305.116z M572.663,316.919c-6.111,3.528-15.372,3.904-20.645,0.836
					c-5.273-3.067-4.591-8.433,1.52-11.961c6.112-3.529,15.374-3.903,20.646-0.836C579.457,308.025,578.775,313.39,572.663,316.919z
					"/>
				
					<linearGradient id="SVGID_00000102532273414964609750000007388715483685014422_" gradientUnits="userSpaceOnUse" x1="586.813" y1="-16159.2646" x2="537.4733" y2="-16208.6045" gradientTransform="matrix(1 -0.5774 -0.8628 -0.5019 -13969.6172 -7494.0029)">
					<stop  offset="0" style="stop-color:#59B4EC"/>
					<stop  offset="0.5168" style="stop-color:#358FC5"/>
					<stop  offset="1" style="stop-color:#1771A5"/>
				</linearGradient>
				<path style="fill:url(#SVGID_00000102532273414964609750000007388715483685014422_);" d="M557.03,307.825
					c0.373-0.216,0.416-0.542,0.093-0.729l-1.582-0.92c-0.322-0.188-0.886-0.164-1.259,0.051c-0.373,0.215-0.416,0.542-0.093,0.729
					l1.582,0.92C556.094,308.064,556.657,308.041,557.03,307.825z"/>
				
					<linearGradient id="SVGID_00000134930630973781519330000011798592726008886423_" gradientUnits="userSpaceOnUse" x1="578.1856" y1="-16185.1475" x2="528.8459" y2="-16234.4863" gradientTransform="matrix(1 -0.5774 -0.8628 -0.5019 -13969.6172 -7494.0029)">
					<stop  offset="0" style="stop-color:#59B4EC"/>
					<stop  offset="0.5168" style="stop-color:#358FC5"/>
					<stop  offset="1" style="stop-color:#1771A5"/>
				</linearGradient>
				<path style="fill:url(#SVGID_00000134930630973781519330000011798592726008886423_);" d="M569.171,314.888
					c-0.373,0.215-0.416,0.542-0.093,0.729l1.582,0.92c0.322,0.188,0.886,0.164,1.259-0.051c0.373-0.215,0.416-0.542,0.093-0.729
					l-1.582-0.92C570.107,314.649,569.544,314.672,569.171,314.888z"/>
				
					<linearGradient id="SVGID_00000072266209002221816520000006048761289742601144_" gradientUnits="userSpaceOnUse" x1="586.8121" y1="-16176.5215" x2="537.4747" y2="-16225.8594" gradientTransform="matrix(1 -0.5774 -0.8628 -0.5019 -13969.6172 -7494.0029)">
					<stop  offset="0" style="stop-color:#59B4EC"/>
					<stop  offset="0.5168" style="stop-color:#358FC5"/>
					<stop  offset="1" style="stop-color:#1771A5"/>
				</linearGradient>
				<path style="fill:url(#SVGID_00000072266209002221816520000006048761289742601144_);" d="M572.063,305.507l-1.833,1.058
					c-0.373,0.215-0.416,0.542-0.093,0.729c0.322,0.188,0.886,0.164,1.259-0.051l1.833-1.058c0.373-0.216,0.415-0.542,0.093-0.729
					C572.999,305.268,572.436,305.292,572.063,305.507z"/>
				
					<linearGradient id="SVGID_00000093882591476894194430000001439656298377484195_" gradientUnits="userSpaceOnUse" x1="578.1837" y1="-16167.8945" x2="528.8472" y2="-16217.2305" gradientTransform="matrix(1 -0.5774 -0.8628 -0.5019 -13969.6172 -7494.0029)">
					<stop  offset="0" style="stop-color:#59B4EC"/>
					<stop  offset="0.5168" style="stop-color:#358FC5"/>
					<stop  offset="1" style="stop-color:#1771A5"/>
				</linearGradient>
				<path style="fill:url(#SVGID_00000093882591476894194430000001439656298377484195_);" d="M554.807,315.47l-1.833,1.058
					c-0.373,0.215-0.416,0.542-0.093,0.729c0.322,0.188,0.886,0.164,1.259-0.051l1.833-1.058c0.373-0.215,0.415-0.542,0.093-0.729
					C555.743,315.231,555.18,315.254,554.807,315.47z"/>
				
					<linearGradient id="SVGID_00000018208069399220198200000005527332423830540702_" gradientUnits="userSpaceOnUse" x1="587.5919" y1="-16170.582" x2="531.5853" y2="-16226.5889" gradientTransform="matrix(1 -0.5774 -0.8628 -0.5019 -13969.6172 -7494.0029)">
					<stop  offset="0" style="stop-color:#59B4EC"/>
					<stop  offset="0.5168" style="stop-color:#358FC5"/>
					<stop  offset="1" style="stop-color:#1771A5"/>
				</linearGradient>
				<path style="fill:url(#SVGID_00000018208069399220198200000005527332423830540702_);" d="M564.553,310.723
					c-0.047-0.04-0.095-0.079-0.156-0.114c-0.133-0.078-0.291-0.133-0.46-0.173l-0.293-4.383c-0.019-0.281-0.434-0.467-0.926-0.415
					c-0.492,0.051-0.877,0.321-0.858,0.602l0.293,4.384c-0.058,0.027-0.117,0.052-0.172,0.083c-0.716,0.413-0.795,1.04-0.178,1.399
					c0.618,0.359,1.699,0.315,2.415-0.098c0.138-0.08,0.245-0.169,0.336-0.261l6.069-0.512c0.222-0.019,0.425-0.082,0.58-0.172
					c0.19-0.11,0.31-0.259,0.31-0.415c-0.002-0.283-0.402-0.478-0.895-0.436L564.553,310.723z"/>
			</g>
			<g id="XMLID_17_">
				<g>
					<g id="XMLID_00000151510855064736598410000006535815039964647103_">
						
							<text transform="matrix(0.9893 -0.5712 0.8644 0.5028 482.277 336.014)" style="fill:#75848E; font-family:'Antonio-Bold'; font-size:18px;">2027</text>
						
							<text transform="matrix(0.9893 -0.5712 0.8644 0.5028 482.277 336.014)" style="fill:#A6AEB2; font-family:'Antonio-Bold'; font-size:18px;">2027</text>
					</g>
				</g>
			</g>
			<g>
				
					<linearGradient id="SVGID_00000069369623514955049570000010007078187452832658_" gradientUnits="userSpaceOnUse" x1="440.1009" y1="351.579" x2="552.2639" y2="351.579">
					<stop  offset="0" style="stop-color:#879196"/>
					<stop  offset="0.6188" style="stop-color:#A7B0B2"/>
					<stop  offset="1" style="stop-color:#BDC5C5"/>
				</linearGradient>
				<path style="opacity:0.2;fill:url(#SVGID_00000069369623514955049570000010007078187452832658_);" d="M530.735,317.119
					c-1.471,0-2.905,0.102-4.293,0.288c-0.098,0.013-0.196,0.028-0.294,0.042c-3.866,0.554-7.342,1.792-10.126,3.517
					c-0.001,0.001-68.657,40.192-68.657,40.192c-0.1,0.059-0.297,0.18-0.297,0.18c-4.283,2.599-6.967,6.331-6.967,10.475
					c0,7.859,9.642,14.225,21.528,14.225c1.471,0,2.905-0.102,4.293-0.288c0.098-0.013,0.196-0.028,0.294-0.042
					c3.866-0.554,7.342-1.792,10.126-3.517C476.344,382.191,545,342,545,342c0.1-0.059,0.297-0.18,0.297-0.18
					c4.283-2.599,6.967-6.331,6.967-10.475C552.264,323.486,542.622,317.119,530.735,317.119z"/>
				<g>
					<polygon style="fill:none;" points="537.227,338.024 469.016,377.69 452.71,368.205 520.921,328.539 					"/>
					<text transform="matrix(1.0019 -0.5784 0.8644 0.5028 455.0301 369.5546)"><tspan x="0" y="0" style="fill:#1771A5; font-family:'Montserrat-SemiBold'; font-size:4px;">Lorem ipsum dolor sit amet:</tspan><tspan x="0" y="4.8" style="fill:#526575; font-family:'Montserrat-Regular'; font-size:4px;">consectetur adipiscing elit, sed do </tspan><tspan x="0" y="9.601" style="fill:#526575; font-family:'Montserrat-Regular'; font-size:4px;">eiusmod tempor.</tspan></text>
				</g>
				<g id="XMLID_7_">
					<g id="XMLID_11_">
						
							<text transform="matrix(1.0019 -0.5784 0.8644 0.5028 439.7413 361.0381)" style="fill:#F6B875; font-family:'Antonio-Bold'; font-size:12px;">CONTROL</text>
						<g>
							
								<linearGradient id="SVGID_00000166640551906679821360000000724584292220279482_" gradientUnits="userSpaceOnUse" x1="135.7159" y1="631.6477" x2="95.6517" y2="604.7228" gradientTransform="matrix(1 -0.5774 0.8628 0.5019 -211.8083 106.5958)">
								<stop  offset="0" style="stop-color:#59B4EC"/>
								<stop  offset="0.5168" style="stop-color:#358FC5"/>
								<stop  offset="1" style="stop-color:#1771A5"/>
							</linearGradient>
							<path style="fill:url(#SVGID_00000166640551906679821360000000724584292220279482_);" d="M442.737,359.426
								c-0.501,0.29-1.018,0.473-1.55,0.549c-0.531,0.075-1.073,0.051-1.622-0.076c-0.551-0.127-1.097-0.349-1.641-0.665
								l-3.885-2.26c-0.408-0.237-0.737-0.474-0.985-0.71c-0.25-0.236-0.403-0.473-0.46-0.709c-0.057-0.238-0.001-0.478,0.168-0.72
								c0.168-0.242,0.468-0.487,0.898-0.735c0.391-0.227,0.779-0.387,1.166-0.482c0.385-0.096,0.769-0.134,1.148-0.114
								s0.756,0.091,1.129,0.214c0.372,0.124,0.74,0.291,1.104,0.504l1.226,0.713l-1.521,0.878l-1.139-0.663
								c-0.439-0.256-0.806-0.419-1.1-0.489c-0.293-0.071-0.57-0.032-0.828,0.117c-0.286,0.165-0.364,0.34-0.235,0.526
								c0.128,0.186,0.395,0.396,0.796,0.629l4.164,2.422c0.311,0.181,0.585,0.316,0.823,0.408c0.238,0.091,0.453,0.135,0.644,0.133
								s0.374-0.055,0.551-0.156c0.266-0.153,0.338-0.32,0.216-0.5c-0.123-0.181-0.418-0.407-0.888-0.68l-1.276-0.743l1.544-0.891
								l1.261,0.733c0.564,0.328,0.958,0.646,1.183,0.953c0.223,0.307,0.263,0.61,0.117,0.909S443.266,359.121,442.737,359.426z"/>
							
								<linearGradient id="SVGID_00000004511451798219282750000015973531567964207004_" gradientUnits="userSpaceOnUse" x1="135.7159" y1="631.6477" x2="95.6517" y2="604.7228" gradientTransform="matrix(1 -0.5774 0.8628 0.5019 -211.8083 106.5958)">
								<stop  offset="0" style="stop-color:#59B4EC"/>
								<stop  offset="0.5168" style="stop-color:#358FC5"/>
								<stop  offset="1" style="stop-color:#1771A5"/>
							</linearGradient>
							<path style="fill:url(#SVGID_00000004511451798219282750000015973531567964207004_);" d="M448.479,356.111
								c-0.536,0.31-1.072,0.505-1.606,0.587c-0.535,0.081-1.074,0.057-1.619-0.075c-0.546-0.131-1.103-0.361-1.67-0.691
								l-4.077-2.372c-0.513-0.298-0.874-0.599-1.081-0.901c-0.209-0.303-0.241-0.609-0.096-0.92
								c0.145-0.311,0.493-0.625,1.045-0.943c0.415-0.239,0.82-0.409,1.218-0.51c0.396-0.1,0.789-0.139,1.176-0.118
								c0.388,0.021,0.772,0.097,1.155,0.226c0.382,0.13,0.766,0.307,1.15,0.53l4.077,2.372c0.567,0.33,0.967,0.651,1.197,0.965
								c0.229,0.313,0.276,0.623,0.14,0.929S449.015,355.802,448.479,356.111z M447.303,355.428
								c0.195-0.113,0.291-0.227,0.289-0.343c-0.004-0.115-0.093-0.243-0.268-0.383c-0.174-0.14-0.42-0.302-0.737-0.486
								l-4.153-2.416c-0.389-0.227-0.73-0.376-1.025-0.45s-0.582-0.031-0.859,0.129c-0.286,0.165-0.377,0.336-0.274,0.514
								c0.102,0.178,0.353,0.383,0.751,0.614l4.158,2.419c0.324,0.188,0.606,0.334,0.849,0.436c0.24,0.101,0.462,0.15,0.663,0.147
								S447.099,355.545,447.303,355.428z"/>
							
								<linearGradient id="SVGID_00000016771153634346532160000015845216006574595723_" gradientUnits="userSpaceOnUse" x1="135.7159" y1="631.6477" x2="95.6517" y2="604.7228" gradientTransform="matrix(1 -0.5774 0.8628 0.5019 -211.8083 106.5958)">
								<stop  offset="0" style="stop-color:#59B4EC"/>
								<stop  offset="0.5168" style="stop-color:#358FC5"/>
								<stop  offset="1" style="stop-color:#1771A5"/>
							</linearGradient>
							<path style="fill:url(#SVGID_00000016771153634346532160000015845216006574595723_);" d="M452.069,353.921l-8.914-5.186
								l1.232-0.712l7.538,1.847l-2.543-1.35l-2.917-1.696l1.415-0.817l8.914,5.186l-1.115,0.644l-7.785-1.922l2.429,1.311
								l3.196,1.858L452.069,353.921z"/>
							
								<linearGradient id="SVGID_00000080169660949262657130000011219283518257401217_" gradientUnits="userSpaceOnUse" x1="135.7159" y1="631.6477" x2="95.6517" y2="604.7228" gradientTransform="matrix(1 -0.5774 0.8628 0.5019 -211.8083 106.5958)">
								<stop  offset="0" style="stop-color:#59B4EC"/>
								<stop  offset="0.5168" style="stop-color:#358FC5"/>
								<stop  offset="1" style="stop-color:#1771A5"/>
							</linearGradient>
							<path style="fill:url(#SVGID_00000080169660949262657130000011219283518257401217_);" d="M458.885,349.985l-7.739-4.502
								l-1.209,0.698l-1.175-0.683l3.938-2.274l1.175,0.684l-1.162,0.671l7.739,4.502L458.885,349.985z"/>
							
								<linearGradient id="SVGID_00000176012945253872303860000014815941645255086520_" gradientUnits="userSpaceOnUse" x1="135.7159" y1="631.6477" x2="95.6517" y2="604.7228" gradientTransform="matrix(1 -0.5774 0.8628 0.5019 -211.8083 106.5958)">
								<stop  offset="0" style="stop-color:#59B4EC"/>
								<stop  offset="0.5168" style="stop-color:#358FC5"/>
								<stop  offset="1" style="stop-color:#1771A5"/>
							</linearGradient>
							<path style="fill:url(#SVGID_00000176012945253872303860000014815941645255086520_);" d="M462.495,347.901l-8.914-5.186
								l2.601-1.501c0.54-0.312,1.033-0.492,1.482-0.539c0.449-0.048,0.891,0.006,1.325,0.162c0.436,0.155,0.906,0.381,1.413,0.675
								c0.523,0.305,0.873,0.58,1.049,0.825c0.176,0.244,0.123,0.506-0.154,0.784c0.207-0.088,0.421-0.139,0.643-0.15
								c0.221-0.012,0.463,0.016,0.729,0.084c0.265,0.067,0.563,0.179,0.896,0.334c0.332,0.154,0.714,0.357,1.146,0.608
								c0.033,0.02,0.128,0.075,0.283,0.165c0.155,0.091,0.34,0.196,0.553,0.318s0.426,0.242,0.639,0.361
								c0.214,0.12,0.398,0.221,0.555,0.302c0.156,0.082,0.254,0.128,0.294,0.137l-1.574,0.908
								c-0.027-0.003-0.124-0.049-0.287-0.137s-0.369-0.2-0.618-0.339c-0.249-0.138-0.515-0.287-0.797-0.449
								s-0.559-0.322-0.831-0.479c-0.271-0.158-0.512-0.299-0.722-0.42c-0.267-0.156-0.49-0.26-0.673-0.313
								c-0.182-0.054-0.358-0.062-0.532-0.024s-0.377,0.117-0.609,0.24l-0.53,0.277l4.209,2.448L462.495,347.901z M458.812,343.929
								l0.628-0.362c0.191-0.111,0.301-0.217,0.326-0.318c0.025-0.101-0.043-0.22-0.205-0.357c-0.162-0.137-0.431-0.314-0.806-0.532
								l-0.056-0.032c-0.313-0.184-0.572-0.313-0.776-0.391c-0.204-0.078-0.395-0.104-0.569-0.077
								c-0.176,0.027-0.382,0.109-0.616,0.245l-0.534,0.308L458.812,343.929z"/>
							
								<linearGradient id="SVGID_00000139985206648009463990000015388805804205801356_" gradientUnits="userSpaceOnUse" x1="135.7159" y1="631.6477" x2="95.6517" y2="604.7228" gradientTransform="matrix(1 -0.5774 0.8628 0.5019 -211.8083 106.5958)">
								<stop  offset="0" style="stop-color:#59B4EC"/>
								<stop  offset="0.5168" style="stop-color:#358FC5"/>
								<stop  offset="1" style="stop-color:#1771A5"/>
							</linearGradient>
							<path style="fill:url(#SVGID_00000139985206648009463990000015388805804205801356_);" d="M470.586,343.348
								c-0.536,0.31-1.072,0.505-1.606,0.587c-0.534,0.081-1.074,0.057-1.619-0.075c-0.545-0.131-1.102-0.361-1.669-0.691
								l-4.077-2.372c-0.513-0.298-0.874-0.599-1.082-0.901c-0.209-0.303-0.24-0.609-0.096-0.92s0.493-0.625,1.045-0.943
								c0.415-0.239,0.82-0.409,1.218-0.51c0.397-0.1,0.789-0.139,1.176-0.118c0.389,0.021,0.772,0.097,1.155,0.226
								c0.382,0.13,0.766,0.307,1.15,0.53l4.077,2.371c0.567,0.33,0.967,0.652,1.197,0.966c0.23,0.313,0.276,0.622,0.141,0.928
								C471.458,342.73,471.122,343.038,470.586,343.348z M469.41,342.664c0.195-0.113,0.292-0.227,0.289-0.343
								c-0.004-0.115-0.093-0.243-0.268-0.383c-0.174-0.141-0.42-0.302-0.737-0.487l-4.153-2.416
								c-0.389-0.226-0.73-0.376-1.025-0.449c-0.295-0.075-0.582-0.031-0.859,0.129c-0.286,0.165-0.377,0.336-0.274,0.514
								s0.354,0.382,0.752,0.614l4.158,2.419c0.324,0.188,0.606,0.334,0.848,0.435c0.24,0.102,0.462,0.151,0.663,0.148
								S469.206,342.781,469.41,342.664z"/>
							
								<linearGradient id="SVGID_00000137123830131023707070000004258330024229207946_" gradientUnits="userSpaceOnUse" x1="135.7159" y1="631.6477" x2="95.6517" y2="604.7228" gradientTransform="matrix(1 -0.5774 0.8628 0.5019 -211.8083 106.5958)">
								<stop  offset="0" style="stop-color:#59B4EC"/>
								<stop  offset="0.5168" style="stop-color:#358FC5"/>
								<stop  offset="1" style="stop-color:#1771A5"/>
							</linearGradient>
							<path style="fill:url(#SVGID_00000137123830131023707070000004258330024229207946_);" d="M474.177,341.156l-8.914-5.185
								l1.573-0.908l7.759,4.513l1.99-1.148l1.155,0.672L474.177,341.156z"/>
						</g>
					</g>
				</g>
			</g>
		</g>
		<g>
			<g>
				
					<linearGradient id="SVGID_00000128443838354336196080000012851596762530208179_" gradientUnits="userSpaceOnUse" x1="551.7288" y1="98.5106" x2="582.2288" y2="113.6773">
					<stop  offset="0" style="stop-color:#F15D42"/>
					<stop  offset="0.1844" style="stop-color:#EC553D"/>
					<stop  offset="1" style="stop-color:#D83527"/>
				</linearGradient>
				<path style="fill-rule:evenodd;clip-rule:evenodd;fill:url(#SVGID_00000128443838354336196080000012851596762530208179_);" d="
					M553.391,104.293l9.181,5.34l10.641-6.144C568.142,100.54,559.268,100.9,553.391,104.293z"/>
				<g>
					
						<linearGradient id="SVGID_00000173851148973184872480000000092094673784439216_" gradientUnits="userSpaceOnUse" x1="548.3075" y1="105.3908" x2="578.8076" y2="120.5575">
						<stop  offset="0" style="stop-color:#F15D42"/>
						<stop  offset="0.1844" style="stop-color:#EC553D"/>
						<stop  offset="1" style="stop-color:#D83527"/>
					</linearGradient>
					<path style="fill:url(#SVGID_00000173851148973184872480000000092094673784439216_);" d="M571.876,117.912
						c-6.164,3.559-15.505,3.938-20.823,0.844c-5.318-3.093-4.63-8.506,1.534-12.064c0.297-0.171,0.745-0.19,1.001-0.041
						l8.717,5.071l10.103-5.833c0.297-0.171,0.745-0.19,1.001-0.041C578.729,108.941,578.04,114.353,571.876,117.912z
						 M552.99,107.548c-5.08,3.214-5.512,7.881-0.861,10.587c4.806,2.796,13.249,2.453,18.82-0.763
						c5.39-3.112,6.147-7.793,1.836-10.625l-10.089,5.825c-0.297,0.171-0.745,0.189-1.001,0.04L552.99,107.548z"/>
				</g>
			</g>
			<g id="XMLID_15_">
				<g>
					<g id="XMLID_00000040548589725680192600000014029271560729811340_">
						
							<text transform="matrix(0.9893 -0.5712 0.8644 0.5028 485.3197 131.881)" style="fill:#75848E; font-family:'Antonio-Bold'; font-size:18px;">2025</text>
						
							<text transform="matrix(0.9893 -0.5712 0.8644 0.5028 485.3197 131.881)" style="fill:#A6AEB2; font-family:'Antonio-Bold'; font-size:18px;">2025</text>
					</g>
				</g>
			</g>
			<g>
				
					<linearGradient id="SVGID_00000142178333887287916420000011866468843314654346_" gradientUnits="userSpaceOnUse" x1="438.9342" y1="149.4615" x2="551.0972" y2="149.4615">
					<stop  offset="0" style="stop-color:#879196"/>
					<stop  offset="0.6188" style="stop-color:#A7B0B2"/>
					<stop  offset="1" style="stop-color:#BDC5C5"/>
				</linearGradient>
				<path style="opacity:0.2;fill:url(#SVGID_00000142178333887287916420000011866468843314654346_);" d="M529.569,115.002
					c-1.471,0-2.905,0.102-4.294,0.288c-0.098,0.013-0.196,0.028-0.294,0.042c-3.866,0.554-7.342,1.792-10.126,3.517
					c-0.001,0.001-68.657,40.192-68.657,40.192c-0.1,0.059-0.297,0.18-0.297,0.18c-4.283,2.599-6.967,6.331-6.967,10.475
					c0,7.859,9.642,14.225,21.528,14.225c1.471,0,2.905-0.102,4.294-0.288c0.098-0.013,0.196-0.028,0.294-0.042
					c3.866-0.554,7.342-1.792,10.126-3.517c0.001-0.001,68.657-40.192,68.657-40.192c0.1-0.059,0.297-0.18,0.297-0.18
					c4.283-2.599,6.967-6.331,6.967-10.475C551.097,121.368,541.455,115.002,529.569,115.002z"/>
				<g>
					<polygon style="fill:none;" points="536.06,135.907 467.849,175.572 451.543,166.087 519.754,126.422 					"/>
					<text transform="matrix(1.0019 -0.5784 0.8644 0.5028 453.8634 167.437)"><tspan x="0" y="0" style="fill:#D83527; font-family:'Montserrat-SemiBold'; font-size:4px;">Lorem ipsum dolor sit amet:</tspan><tspan x="0" y="4.8" style="fill:#526575; font-family:'Montserrat-Regular'; font-size:4px;">consectetur adipiscing elit, sed do </tspan><tspan x="0" y="9.601" style="fill:#526575; font-family:'Montserrat-Regular'; font-size:4px;">eiusmod tempor.</tspan></text>
				</g>
				<g id="XMLID_1_">
					<g id="XMLID_3_">
						
							<text transform="matrix(1.0019 -0.5784 0.8644 0.5028 438.9962 158.6871)" style="fill:#F6B875; font-family:'Antonio-Bold'; font-size:12px;">PLANNING</text>
						<g>
							
								<linearGradient id="SVGID_00000150817154817534248260000014337234249019466913_" gradientUnits="userSpaceOnUse" x1="312.9384" y1="429.5038" x2="267.8538" y2="399.205" gradientTransform="matrix(1 -0.5774 0.8628 0.5019 -211.8083 106.5958)">
								<stop  offset="0" style="stop-color:#F15D42"/>
								<stop  offset="0.1844" style="stop-color:#EC553D"/>
								<stop  offset="1" style="stop-color:#D83527"/>
							</linearGradient>
							<path style="fill:url(#SVGID_00000150817154817534248260000014337234249019466913_);" d="M439.771,158.239l-8.914-5.185
								l2.371-1.37c0.411-0.236,0.807-0.402,1.187-0.497c0.38-0.094,0.755-0.124,1.125-0.091c0.368,0.033,0.742,0.121,1.121,0.265
								s0.772,0.334,1.181,0.571l0.188,0.109c0.574,0.334,1.005,0.651,1.294,0.952c0.288,0.302,0.388,0.6,0.3,0.894
								c-0.089,0.293-0.402,0.596-0.941,0.907l-0.852,0.491l3.515,2.045L439.771,158.239z M436.71,154.636l0.54-0.313
								c0.23-0.133,0.352-0.262,0.365-0.387c0.012-0.124-0.081-0.266-0.278-0.423c-0.198-0.158-0.492-0.352-0.884-0.579
								l-0.173-0.101c-0.486-0.278-0.9-0.462-1.243-0.553c-0.342-0.091-0.679-0.039-1.012,0.153l-0.552,0.318L436.71,154.636z"/>
							
								<linearGradient id="SVGID_00000108996130688564788140000001327070318900974780_" gradientUnits="userSpaceOnUse" x1="312.9384" y1="429.5038" x2="267.8538" y2="399.205" gradientTransform="matrix(1 -0.5774 0.8628 0.5019 -211.8083 106.5958)">
								<stop  offset="0" style="stop-color:#F15D42"/>
								<stop  offset="0.1844" style="stop-color:#EC553D"/>
								<stop  offset="1" style="stop-color:#D83527"/>
							</linearGradient>
							<path style="fill:url(#SVGID_00000108996130688564788140000001327070318900974780_);" d="M445.307,155.043l-8.914-5.185
								l1.573-0.908l7.759,4.513l1.99-1.148l1.155,0.672L445.307,155.043z"/>
							
								<linearGradient id="SVGID_00000072279502581415860880000006701867841174249638_" gradientUnits="userSpaceOnUse" x1="312.9384" y1="429.5038" x2="267.8538" y2="399.205" gradientTransform="matrix(1 -0.5774 0.8628 0.5019 -211.8083 106.5958)">
								<stop  offset="0" style="stop-color:#F15D42"/>
								<stop  offset="0.1844" style="stop-color:#EC553D"/>
								<stop  offset="1" style="stop-color:#D83527"/>
							</linearGradient>
							<path style="fill:url(#SVGID_00000072279502581415860880000006701867841174249638_);" d="M449.111,152.847l-7.441-6.035
								l2.079-1.2l10.48,4.28l-1.467,0.848l-1.838-0.783l-1.667,0.963l1.368,1.054L449.111,152.847z M448.321,150.197l1.351-0.779
								l-5.169-2.205l-0.024,0.014L448.321,150.197z"/>
							
								<linearGradient id="SVGID_00000137817005107916592860000012167503012832766887_" gradientUnits="userSpaceOnUse" x1="312.9384" y1="429.5038" x2="267.8538" y2="399.205" gradientTransform="matrix(1 -0.5774 0.8628 0.5019 -211.8083 106.5958)">
								<stop  offset="0" style="stop-color:#F15D42"/>
								<stop  offset="0.1844" style="stop-color:#EC553D"/>
								<stop  offset="1" style="stop-color:#D83527"/>
							</linearGradient>
							<path style="fill:url(#SVGID_00000137817005107916592860000012167503012832766887_);" d="M455.163,149.353l-8.914-5.185
								l1.233-0.712l7.538,1.847l-2.543-1.35l-2.917-1.697l1.414-0.816l8.914,5.185l-1.115,0.645l-7.784-1.922l2.428,1.311
								l3.196,1.858L455.163,149.353z"/>
							
								<linearGradient id="SVGID_00000119800581593866240730000004262039595840068234_" gradientUnits="userSpaceOnUse" x1="312.9384" y1="429.5038" x2="267.8538" y2="399.205" gradientTransform="matrix(1 -0.5774 0.8628 0.5019 -211.8083 106.5958)">
								<stop  offset="0" style="stop-color:#F15D42"/>
								<stop  offset="0.1844" style="stop-color:#EC553D"/>
								<stop  offset="1" style="stop-color:#D83527"/>
							</linearGradient>
							<path style="fill:url(#SVGID_00000119800581593866240730000004262039595840068234_);" d="M461.438,145.729l-8.914-5.185
								l1.233-0.712l7.538,1.847l-2.543-1.35l-2.917-1.697l1.414-0.816l8.914,5.185l-1.115,0.645l-7.784-1.922l2.428,1.311
								l3.196,1.858L461.438,145.729z"/>
							
								<linearGradient id="SVGID_00000165192136933573163390000007441877232961344411_" gradientUnits="userSpaceOnUse" x1="312.9384" y1="429.5038" x2="267.8538" y2="399.205" gradientTransform="matrix(1 -0.5774 0.8628 0.5019 -211.8083 106.5958)">
								<stop  offset="0" style="stop-color:#F15D42"/>
								<stop  offset="0.1844" style="stop-color:#EC553D"/>
								<stop  offset="1" style="stop-color:#D83527"/>
							</linearGradient>
							<path style="fill:url(#SVGID_00000165192136933573163390000007441877232961344411_);" d="M467.75,142.086l-8.914-5.185
								l1.572-0.908l8.914,5.185L467.75,142.086z"/>
							
								<linearGradient id="SVGID_00000101826040155224538840000018087757863429175442_" gradientUnits="userSpaceOnUse" x1="312.9384" y1="429.5038" x2="267.8538" y2="399.205" gradientTransform="matrix(1 -0.5774 0.8628 0.5019 -211.8083 106.5958)">
								<stop  offset="0" style="stop-color:#F15D42"/>
								<stop  offset="0.1844" style="stop-color:#EC553D"/>
								<stop  offset="1" style="stop-color:#D83527"/>
							</linearGradient>
							<path style="fill:url(#SVGID_00000101826040155224538840000018087757863429175442_);" d="M470.902,140.267l-8.914-5.186
								l1.232-0.712l7.538,1.847l-2.543-1.35l-2.917-1.696l1.414-0.817l8.914,5.186l-1.115,0.644l-7.784-1.922l2.428,1.311
								l3.196,1.858L470.902,140.267z"/>
							
								<linearGradient id="SVGID_00000036244940445496445320000012919892450520163504_" gradientUnits="userSpaceOnUse" x1="312.9384" y1="429.5038" x2="267.8538" y2="399.205" gradientTransform="matrix(1 -0.5774 0.8628 0.5019 -211.8083 106.5958)">
								<stop  offset="0" style="stop-color:#F15D42"/>
								<stop  offset="0.1844" style="stop-color:#EC553D"/>
								<stop  offset="1" style="stop-color:#D83527"/>
							</linearGradient>
							<path style="fill:url(#SVGID_00000036244940445496445320000012919892450520163504_);" d="M479.211,135.574
								c-0.622,0.359-1.335,0.525-2.139,0.498c-0.803-0.027-1.681-0.317-2.633-0.872l-3.875-2.254
								c-0.398-0.231-0.71-0.464-0.937-0.697c-0.226-0.233-0.354-0.468-0.387-0.701c-0.032-0.234,0.045-0.47,0.229-0.708
								c0.184-0.237,0.485-0.477,0.904-0.719c0.453-0.262,0.882-0.441,1.284-0.539c0.401-0.097,0.791-0.126,1.167-0.087
								c0.375,0.04,0.754,0.136,1.133,0.289c0.38,0.152,0.771,0.347,1.177,0.582l0.633,0.368l-1.468,0.848l-0.932-0.542
								c-0.401-0.234-0.734-0.372-0.999-0.415s-0.531,0.013-0.797,0.166c-0.294,0.17-0.397,0.345-0.313,0.525
								c0.083,0.18,0.377,0.416,0.88,0.709l3.864,2.248c0.561,0.326,1.01,0.532,1.348,0.617c0.337,0.085,0.658,0.039,0.964-0.137
								c0.297-0.172,0.384-0.366,0.259-0.581c-0.126-0.216-0.479-0.492-1.06-0.83l-1.2-0.698l-0.792,0.457l-0.987-0.574l2.166-1.25
								l4.867,2.831l-0.705,0.406l-1.116-0.371c0.221,0.229,0.275,0.473,0.165,0.732
								C479.801,135.136,479.567,135.369,479.211,135.574z"/>
						</g>
					</g>
				</g>
			</g>
		</g>
		<g>
			<g id="XMLID_16_">
				<g>
					<g id="XMLID_00000100382857203061607840000007687367625474817409_">
						
							<text transform="matrix(0.9893 -0.5712 0.8644 0.5028 146.3186 343.0307)" style="fill:#75848E; font-family:'Antonio-Bold'; font-size:18px;">2026</text>
						
							<text transform="matrix(0.9893 -0.5712 0.8644 0.5028 146.3186 343.0307)" style="fill:#A6AEB2; font-family:'Antonio-Bold'; font-size:18px;">2026</text>
					</g>
				</g>
			</g>
			<g>
				
					<linearGradient id="SVGID_00000036219223023312059820000002374321285167863177_" gradientUnits="userSpaceOnUse" x1="97.6645" y1="362.0697" x2="209.8275" y2="362.0697">
					<stop  offset="0" style="stop-color:#879196"/>
					<stop  offset="0.6188" style="stop-color:#A7B0B2"/>
					<stop  offset="1" style="stop-color:#BDC5C5"/>
				</linearGradient>
				<path style="opacity:0.2;fill:url(#SVGID_00000036219223023312059820000002374321285167863177_);" d="M188.299,327.61
					c-1.471,0-2.905,0.102-4.294,0.288c-0.098,0.013-0.196,0.028-0.294,0.042c-3.866,0.554-7.342,1.792-10.126,3.517
					c-0.001,0.001-68.657,40.192-68.657,40.192c-0.1,0.059-0.297,0.18-0.297,0.18c-4.283,2.599-6.967,6.331-6.967,10.475
					c0,7.859,9.642,14.225,21.528,14.225c1.471,0,2.905-0.102,4.293-0.288c0.098-0.013,0.196-0.028,0.294-0.042
					c3.866-0.554,7.342-1.792,10.126-3.517c0.001-0.001,68.657-40.192,68.657-40.192c0.1-0.059,0.297-0.18,0.297-0.18
					c4.283-2.599,6.967-6.331,6.967-10.475C209.827,333.977,200.186,327.61,188.299,327.61z"/>
				<g>
					<polygon style="fill:none;" points="194.79,348.515 126.579,388.18 110.273,378.695 178.484,339.03 					"/>
					<text transform="matrix(1.0019 -0.5784 0.8644 0.5028 112.5937 380.0453)"><tspan x="0" y="0" style="fill:#319763; font-family:'Montserrat-SemiBold'; font-size:4px;">Lorem ipsum dolor sit amet:</tspan><tspan x="0" y="4.8" style="fill:#526575; font-family:'Montserrat-Regular'; font-size:4px;">consectetur adipiscing elit, sed do </tspan><tspan x="0" y="9.601" style="fill:#526575; font-family:'Montserrat-Regular'; font-size:4px;">eiusmod tempor.</tspan></text>
				</g>
				<g>
					<g id="XMLID_4_">
						<g id="XMLID_6_">
							
								<text transform="matrix(1.0019 -0.5784 0.8644 0.5028 97.1689 371.4991)" style="fill:#F6B875; font-family:'Antonio-Bold'; font-size:12px;">EXECUTION</text>
							<g>
								
									<linearGradient id="SVGID_00000076575968743420260800000014770474657593217971_" gradientUnits="userSpaceOnUse" x1="-40.3318" y1="445.0018" x2="-87.6589" y2="413.196" gradientTransform="matrix(1 -0.5774 0.8628 0.5019 -211.8083 106.5958)">
									<stop  offset="0" style="stop-color:#1DB78A"/>
									<stop  offset="0.1652" style="stop-color:#21B183"/>
									<stop  offset="1" style="stop-color:#319763"/>
								</linearGradient>
								<path style="fill:url(#SVGID_00000076575968743420260800000014770474657593217971_);" d="M97.944,371.052l-8.914-5.186
									l3.463-2l1.17,0.681l-1.89,1.091l2.593,1.51l1.796-1.037l1.145,0.665l-1.796,1.037l2.837,1.649l1.96-1.132l1.17,0.681
									L97.944,371.052z"/>
								
									<linearGradient id="SVGID_00000129888782080063835510000002737996705035775157_" gradientUnits="userSpaceOnUse" x1="-40.3318" y1="445.0018" x2="-87.6589" y2="413.196" gradientTransform="matrix(1 -0.5774 0.8628 0.5019 -211.8083 106.5958)">
									<stop  offset="0" style="stop-color:#1DB78A"/>
									<stop  offset="0.1652" style="stop-color:#21B183"/>
									<stop  offset="1" style="stop-color:#319763"/>
								</linearGradient>
								<path style="fill:url(#SVGID_00000129888782080063835510000002737996705035775157_);" d="M102.106,368.648l-3.19-3.7
									l-5.718-1.488l1.327-0.766l3.676,0.947l-1.82-2.019l1.473-0.851l3.002,3.556l6.036,1.558l-1.362,0.787l-3.791-0.987
									l1.889,2.085L102.106,368.648z"/>
								
									<linearGradient id="SVGID_00000145052527101147513760000013042047090581415565_" gradientUnits="userSpaceOnUse" x1="-40.3318" y1="445.0018" x2="-87.6589" y2="413.196" gradientTransform="matrix(1 -0.5774 0.8628 0.5019 -211.8083 106.5958)">
									<stop  offset="0" style="stop-color:#1DB78A"/>
									<stop  offset="0.1652" style="stop-color:#21B183"/>
									<stop  offset="1" style="stop-color:#319763"/>
								</linearGradient>
								<path style="fill:url(#SVGID_00000145052527101147513760000013042047090581415565_);" d="M107.906,365.3l-8.914-5.186
									l3.463-1.999l1.17,0.68l-1.89,1.092l2.593,1.509l1.796-1.037l1.145,0.665l-1.796,1.037l2.837,1.65l1.96-1.132l1.17,0.681
									L107.906,365.3z"/>
								
									<linearGradient id="SVGID_00000020397290166376056820000015116929620346455696_" gradientUnits="userSpaceOnUse" x1="-40.3318" y1="445.0018" x2="-87.6589" y2="413.196" gradientTransform="matrix(1 -0.5774 0.8628 0.5019 -211.8083 106.5958)">
									<stop  offset="0" style="stop-color:#1DB78A"/>
									<stop  offset="0.1652" style="stop-color:#21B183"/>
									<stop  offset="1" style="stop-color:#319763"/>
								</linearGradient>
								<path style="fill:url(#SVGID_00000020397290166376056820000015116929620346455696_);" d="M114.823,361.424
									c-0.501,0.29-1.018,0.472-1.55,0.548c-0.531,0.076-1.073,0.052-1.622-0.076c-0.55-0.127-1.097-0.348-1.641-0.664
									l-3.885-2.26c-0.408-0.238-0.737-0.475-0.986-0.71c-0.25-0.236-0.403-0.473-0.459-0.71
									c-0.057-0.237-0.001-0.477,0.168-0.719c0.168-0.242,0.468-0.487,0.898-0.736c0.391-0.226,0.779-0.387,1.166-0.481
									c0.385-0.096,0.769-0.134,1.149-0.114c0.38,0.02,0.756,0.09,1.129,0.214c0.372,0.124,0.74,0.291,1.104,0.504l1.226,0.713
									L110,357.81l-1.139-0.663c-0.439-0.256-0.806-0.419-1.1-0.489c-0.293-0.072-0.57-0.032-0.828,0.117
									c-0.286,0.164-0.364,0.34-0.235,0.525c0.128,0.187,0.394,0.396,0.795,0.63l4.164,2.422c0.311,0.181,0.585,0.316,0.823,0.407
									c0.238,0.092,0.454,0.136,0.644,0.134c0.19-0.003,0.374-0.055,0.55-0.156c0.266-0.153,0.338-0.32,0.216-0.501
									c-0.123-0.18-0.418-0.406-0.888-0.679l-1.276-0.743l1.544-0.891l1.261,0.733c0.564,0.328,0.958,0.646,1.182,0.952
									c0.223,0.308,0.263,0.611,0.118,0.91C115.687,360.817,115.352,361.119,114.823,361.424z"/>
								
									<linearGradient id="SVGID_00000008831040553723979570000004477777620136729217_" gradientUnits="userSpaceOnUse" x1="-40.3318" y1="445.0018" x2="-87.6589" y2="413.196" gradientTransform="matrix(1 -0.5774 0.8628 0.5019 -211.8083 106.5958)">
									<stop  offset="0" style="stop-color:#1DB78A"/>
									<stop  offset="0.1652" style="stop-color:#21B183"/>
									<stop  offset="1" style="stop-color:#319763"/>
								</linearGradient>
								<path style="fill:url(#SVGID_00000008831040553723979570000004477777620136729217_);" d="M120.599,358.089
									c-0.536,0.31-1.059,0.511-1.571,0.604c-0.51,0.093-1.02,0.082-1.529-0.033c-0.509-0.114-1.034-0.329-1.574-0.644
									l-6.625-3.854l1.574-0.908l6.6,3.839c0.25,0.146,0.481,0.266,0.696,0.361c0.215,0.095,0.423,0.145,0.626,0.149
									c0.202,0.004,0.415-0.059,0.639-0.187c0.223-0.129,0.333-0.252,0.33-0.37c-0.003-0.117-0.087-0.238-0.253-0.361
									s-0.375-0.259-0.628-0.406l-6.6-3.839l1.573-0.908l6.625,3.854c0.54,0.314,0.909,0.618,1.107,0.913s0.217,0.589,0.056,0.883
									C121.484,357.478,121.136,357.779,120.599,358.089z"/>
								
									<linearGradient id="SVGID_00000131329647863674283090000013531364022110100378_" gradientUnits="userSpaceOnUse" x1="-40.3318" y1="445.0018" x2="-87.6589" y2="413.196" gradientTransform="matrix(1 -0.5774 0.8628 0.5019 -211.8083 106.5958)">
									<stop  offset="0" style="stop-color:#1DB78A"/>
									<stop  offset="0.1652" style="stop-color:#21B183"/>
									<stop  offset="1" style="stop-color:#319763"/>
								</linearGradient>
								<path style="fill:url(#SVGID_00000131329647863674283090000013531364022110100378_);" d="M124.777,355.56l-7.739-4.502
									l-1.209,0.697l-1.175-0.683l3.938-2.274l1.175,0.684l-1.162,0.671l7.739,4.502L124.777,355.56z"/>
								
									<linearGradient id="SVGID_00000160910332554003352320000011084187710354938264_" gradientUnits="userSpaceOnUse" x1="-40.3318" y1="445.0018" x2="-87.6589" y2="413.196" gradientTransform="matrix(1 -0.5774 0.8628 0.5019 -211.8083 106.5958)">
									<stop  offset="0" style="stop-color:#1DB78A"/>
									<stop  offset="0.1652" style="stop-color:#21B183"/>
									<stop  offset="1" style="stop-color:#319763"/>
								</linearGradient>
								<path style="fill:url(#SVGID_00000160910332554003352320000011084187710354938264_);" d="M128.423,353.454l-8.914-5.185
									l1.573-0.908l8.914,5.185L128.423,353.454z"/>
								
									<linearGradient id="SVGID_00000094586049017941522230000003985198991275621504_" gradientUnits="userSpaceOnUse" x1="-40.3318" y1="445.0018" x2="-87.6589" y2="413.196" gradientTransform="matrix(1 -0.5774 0.8628 0.5019 -211.8083 106.5958)">
									<stop  offset="0" style="stop-color:#1DB78A"/>
									<stop  offset="0.1652" style="stop-color:#21B183"/>
									<stop  offset="1" style="stop-color:#319763"/>
								</linearGradient>
								<path style="fill:url(#SVGID_00000094586049017941522230000003985198991275621504_);" d="M133.849,350.439
									c-0.536,0.31-1.072,0.505-1.605,0.587c-0.535,0.081-1.075,0.057-1.62-0.075c-0.545-0.131-1.102-0.362-1.669-0.692
									l-4.077-2.371c-0.513-0.299-0.874-0.599-1.082-0.901c-0.208-0.303-0.24-0.609-0.095-0.92
									c0.144-0.311,0.492-0.625,1.044-0.943c0.415-0.239,0.821-0.409,1.218-0.51c0.397-0.1,0.789-0.14,1.176-0.118
									c0.388,0.021,0.772,0.096,1.155,0.226c0.382,0.13,0.766,0.307,1.15,0.53l4.077,2.371c0.567,0.33,0.966,0.652,1.197,0.965
									c0.23,0.313,0.277,0.623,0.141,0.93C134.721,349.822,134.385,350.13,133.849,350.439z M132.673,349.756
									c0.196-0.113,0.292-0.227,0.289-0.343c-0.004-0.115-0.092-0.243-0.267-0.383c-0.174-0.141-0.42-0.303-0.737-0.486
									l-4.153-2.416c-0.389-0.227-0.73-0.377-1.026-0.45c-0.295-0.075-0.581-0.031-0.859,0.129
									c-0.285,0.165-0.376,0.336-0.274,0.514c0.103,0.178,0.354,0.382,0.752,0.614l4.158,2.419
									c0.324,0.188,0.606,0.334,0.848,0.435c0.24,0.102,0.462,0.151,0.663,0.148C132.267,349.934,132.47,349.873,132.673,349.756z
									"/>
								
									<linearGradient id="SVGID_00000005251121377555974070000014847742454318721955_" gradientUnits="userSpaceOnUse" x1="-40.3318" y1="445.0018" x2="-87.6589" y2="413.196" gradientTransform="matrix(1 -0.5774 0.8628 0.5019 -211.8083 106.5958)">
									<stop  offset="0" style="stop-color:#1DB78A"/>
									<stop  offset="0.1652" style="stop-color:#21B183"/>
									<stop  offset="1" style="stop-color:#319763"/>
								</linearGradient>
								<path style="fill:url(#SVGID_00000005251121377555974070000014847742454318721955_);" d="M137.439,348.249l-8.914-5.186
									l1.233-0.712l7.539,1.847l-2.543-1.35l-2.917-1.696l1.415-0.817l8.914,5.186l-1.115,0.644l-7.784-1.922l2.428,1.311
									l3.196,1.858L137.439,348.249z"/>
							</g>
						</g>
					</g>
				</g>
			</g>
			
				<linearGradient id="SVGID_00000150066938737846850210000000333175728476904071_" gradientUnits="userSpaceOnUse" x1="64.3277" y1="402.128" x2="103.9496" y2="402.128">
				<stop  offset="0" style="stop-color:#1DB78A"/>
				<stop  offset="0.1652" style="stop-color:#21B183"/>
				<stop  offset="1" style="stop-color:#319763"/>
			</linearGradient>
			<path style="fill:none;stroke:url(#SVGID_00000150066938737846850210000000333175728476904071_);stroke-miterlimit:10;" d="
				M95.59,393.329l-1.85,1.068c-1.687-0.632-3.605-1.017-5.608-1.151l0.181-1.424c0.065-0.511-0.616-0.907-1.51-0.878l-2.499,0.109
				c-0.908,0.037-1.683,0.484-1.75,1.01l-0.179,1.408c-2.072,0.307-4.108,0.852-5.974,1.628l-1.596-0.928
				c-0.594-0.345-1.621-0.311-2.31,0.086l-1.893,1.093c-0.688,0.397-0.765,1.001-0.171,1.346l1.596,0.928
				c-1.332,1.07-2.279,2.248-2.817,3.448l-2.431,0.099c-0.908,0.037-1.697,0.492-1.75,1.01l-0.198,1.448
				c-0.067,0.526,0.614,0.922,1.51,0.878l2.458-0.1c0.224,1.161,0.88,2.274,1.965,3.254l-1.85,1.068
				c-0.688,0.397-0.778,0.994-0.184,1.339l1.633,0.95c0.594,0.346,1.636,0.303,2.324-0.094l1.85-1.068
				c1.687,0.632,3.593,1.009,5.608,1.151l-0.193,1.417c-0.067,0.526,0.614,0.922,1.522,0.885l2.499-0.109
				c0.894-0.028,1.683-0.484,1.75-1.01l0.179-1.408c2.06-0.314,4.096-0.859,5.948-1.627l1.609,0.936
				c0.582,0.338,1.623,0.296,2.312-0.101l1.893-1.093c0.688-0.398,0.751-0.993,0.169-1.331l-1.608-0.936
				c1.346-1.078,2.294-2.256,2.844-3.449l2.431-0.098c0.908-0.037,1.683-0.484,1.75-1.01l0.197-1.448
				c0.053-0.518-0.628-0.914-1.522-0.885l-2.445,0.107c-0.237-1.168-0.88-2.274-1.965-3.254l1.85-1.068
				c0.688-0.397,0.765-1.001,0.171-1.347l-1.633-0.95C97.309,392.882,96.279,392.932,95.59,393.329z M89.244,405.097
				c-3.27,1.888-8.212,2.088-11.034,0.447c-2.809-1.634-2.445-4.497,0.825-6.385c3.256-1.88,8.198-2.08,11.007-0.446
				C92.863,400.354,92.499,403.217,89.244,405.097z"/>
		</g>
	</g>
</g>
</svg>
